<svg xmlns="http://www.w3.org/2000/svg" xmlns:xlink="http://www.w3.org/1999/xlink" version="1.1" class="marks" width="847" height="647" viewBox="0 0 847 647"><rect width="847" height="647" fill="white"/><g fill="none" stroke-miterlimit="10" transform="translate(41,10)"><g class="mark-group role-frame root" role="graphics-object" aria-roledescription="group mark container"><g transform="translate(0,0)"><path class="background" aria-hidden="true" d="M0.5,0.5h800v600h-800Z" stroke="#ddd"/><g><g class="mark-group role-axis" aria-hidden="true"><g transform="translate(0.5,600.5)"><path class="background" aria-hidden="true" d="M0,0h0v0h0Z" pointer-events="none"/><g><g class="mark-rule role-axis-grid" pointer-events="none"><line transform="translate(0,-600)" x2="0" y2="600" stroke="#ddd" stroke-width="1" opacity="1"/><line transform="translate(62,-600)" x2="0" y2="600" stroke="#ddd" stroke-width="1" opacity="1"/><line transform="translate(123,-600)" x2="0" y2="600" stroke="#ddd" stroke-width="1" opacity="1"/><line transform="translate(185,-600)" x2="0" y2="600" stroke="#ddd" stroke-width="1" opacity="1"/><line transform="translate(246,-600)" x2="0" y2="600" stroke="#ddd" stroke-width="1" opacity="1"/><line transform="translate(308,-600)" x2="0" y2="600" stroke="#ddd" stroke-width="1" opacity="1"/><line transform="translate(369,-600)" x2="0" y2="600" stroke="#ddd" stroke-width="1" opacity="1"/><line transform="translate(431,-600)" x2="0" y2="600" stroke="#ddd" stroke-width="1" opacity="1"/><line transform="translate(492,-600)" x2="0" y2="600" stroke="#ddd" stroke-width="1" opacity="1"/><line transform="translate(554,-600)" x2="0" y2="600" stroke="#ddd" stroke-width="1" opacity="1"/><line transform="translate(615,-600)" x2="0" y2="600" stroke="#ddd" stroke-width="1" opacity="1"/><line transform="translate(677,-600)" x2="0" y2="600" stroke="#ddd" stroke-width="1" opacity="1"/><line transform="translate(738,-600)" x2="0" y2="600" stroke="#ddd" stroke-width="1" opacity="1"/><line transform="translate(800,-600)" x2="0" y2="600" stroke="#ddd" stroke-width="1" opacity="1"/></g></g><path class="foreground" aria-hidden="true" d="" pointer-events="none" display="none"/></g></g><g class="mark-group role-axis" aria-hidden="true"><g transform="translate(0.5,0.5)"><path class="background" aria-hidden="true" d="M0,0h0v0h0Z" pointer-events="none"/><g><g class="mark-rule role-axis-grid" pointer-events="none"><line transform="translate(0,600)" x2="800" y2="0" stroke="#ddd" stroke-width="1" opacity="1"/><line transform="translate(0,410)" x2="800" y2="0" stroke="#ddd" stroke-width="1" opacity="1"/><line transform="translate(0,332)" x2="800" y2="0" stroke="#ddd" stroke-width="1" opacity="1"/><line transform="translate(0,271)" x2="800" y2="0" stroke="#ddd" stroke-width="1" opacity="1"/><line transform="translate(0,221)" x2="800" y2="0" stroke="#ddd" stroke-width="1" opacity="1"/><line transform="translate(0,176)" x2="800" y2="0" stroke="#ddd" stroke-width="1" opacity="1"/><line transform="translate(0,135)" x2="800" y2="0" stroke="#ddd" stroke-width="1" opacity="1"/><line transform="translate(0,98)" x2="800" y2="0" stroke="#ddd" stroke-width="1" opacity="1"/><line transform="translate(0,63)" x2="800" y2="0" stroke="#ddd" stroke-width="1" opacity="1"/><line transform="translate(0,31)" x2="800" y2="0" stroke="#ddd" stroke-width="1" opacity="1"/><line transform="translate(0,0)" x2="800" y2="0" stroke="#ddd" stroke-width="1" opacity="1"/></g></g><path class="foreground" aria-hidden="true" d="" pointer-events="none" display="none"/></g></g><g class="mark-group role-axis" role="graphics-symbol" aria-roledescription="axis" aria-label="X-axis titled 'Codon Site' for a linear scale with values from 0 to 65"><g transform="translate(0.5,600.5)"><path class="background" aria-hidden="true" d="M0,0h0v0h0Z" pointer-events="none"/><g><g class="mark-rule role-axis-tick" pointer-events="none"><line transform="translate(0,0)" x2="0" y2="5" stroke="#888" stroke-width="1" opacity="1"/><line transform="translate(62,0)" x2="0" y2="5" stroke="#888" stroke-width="1" opacity="1"/><line transform="translate(123,0)" x2="0" y2="5" stroke="#888" stroke-width="1" opacity="1"/><line transform="translate(185,0)" x2="0" y2="5" stroke="#888" stroke-width="1" opacity="1"/><line transform="translate(246,0)" x2="0" y2="5" stroke="#888" stroke-width="1" opacity="1"/><line transform="translate(308,0)" x2="0" y2="5" stroke="#888" stroke-width="1" opacity="1"/><line transform="translate(369,0)" x2="0" y2="5" stroke="#888" stroke-width="1" opacity="1"/><line transform="translate(431,0)" x2="0" y2="5" stroke="#888" stroke-width="1" opacity="1"/><line transform="translate(492,0)" x2="0" y2="5" stroke="#888" stroke-width="1" opacity="1"/><line transform="translate(554,0)" x2="0" y2="5" stroke="#888" stroke-width="1" opacity="1"/><line transform="translate(615,0)" x2="0" y2="5" stroke="#888" stroke-width="1" opacity="1"/><line transform="translate(677,0)" x2="0" y2="5" stroke="#888" stroke-width="1" opacity="1"/><line transform="translate(738,0)" x2="0" y2="5" stroke="#888" stroke-width="1" opacity="1"/><line transform="translate(800,0)" x2="0" y2="5" stroke="#888" stroke-width="1" opacity="1"/></g><g class="mark-text role-axis-label" pointer-events="none"><text text-anchor="start" transform="translate(0,15)" font-family="sans-serif" font-size="10px" fill="#000" opacity="1">0</text><text text-anchor="middle" transform="translate(61.53846153846154,15)" font-family="sans-serif" font-size="10px" fill="#000" opacity="1">5</text><text text-anchor="middle" transform="translate(123.07692307692308,15)" font-family="sans-serif" font-size="10px" fill="#000" opacity="1">10</text><text text-anchor="middle" transform="translate(184.6153846153846,15)" font-family="sans-serif" font-size="10px" fill="#000" opacity="1">15</text><text text-anchor="middle" transform="translate(246.15384615384616,15)" font-family="sans-serif" font-size="10px" fill="#000" opacity="1">20</text><text text-anchor="middle" transform="translate(307.69230769230774,15)" font-family="sans-serif" font-size="10px" fill="#000" opacity="1">25</text><text text-anchor="middle" transform="translate(369.2307692307692,15)" font-family="sans-serif" font-size="10px" fill="#000" opacity="1">30</text><text text-anchor="middle" transform="translate(430.7692307692308,15)" font-family="sans-serif" font-size="10px" fill="#000" opacity="1">35</text><text text-anchor="middle" transform="translate(492.3076923076923,15)" font-family="sans-serif" font-size="10px" fill="#000" opacity="1">40</text><text text-anchor="middle" transform="translate(553.8461538461538,15)" font-family="sans-serif" font-size="10px" fill="#000" opacity="1">45</text><text text-anchor="middle" transform="translate(615.3846153846155,15)" font-family="sans-serif" font-size="10px" fill="#000" opacity="1">50</text><text text-anchor="middle" transform="translate(676.9230769230769,15)" font-family="sans-serif" font-size="10px" fill="#000" opacity="1">55</text><text text-anchor="middle" transform="translate(738.4615384615385,15)" font-family="sans-serif" font-size="10px" fill="#000" opacity="1">60</text><text text-anchor="end" transform="translate(800,15)" font-family="sans-serif" font-size="10px" fill="#000" opacity="1">65</text></g><g class="mark-rule role-axis-domain" pointer-events="none"><line transform="translate(0,0)" x2="800" y2="0" stroke="#888" stroke-width="1" opacity="1"/></g><g class="mark-text role-axis-title" pointer-events="none"><text text-anchor="middle" transform="translate(400,30)" font-family="sans-serif" font-size="11px" font-weight="bold" fill="#000" opacity="1">Codon Site</text></g></g><path class="foreground" aria-hidden="true" d="" pointer-events="none" display="none"/></g></g><g class="mark-group role-axis" role="graphics-symbol" aria-roledescription="axis" aria-label="Y-axis titled 'dN/dS estimate' for a sqrt scale with values from 0 to 5"><g transform="translate(0.5,0.5)"><path class="background" aria-hidden="true" d="M0,0h0v0h0Z" pointer-events="none"/><g><g class="mark-rule role-axis-tick" pointer-events="none"><line transform="translate(0,600)" x2="-5" y2="0" stroke="#888" stroke-width="1" opacity="1"/><line transform="translate(0,410)" x2="-5" y2="0" stroke="#888" stroke-width="1" opacity="1"/><line transform="translate(0,332)" x2="-5" y2="0" stroke="#888" stroke-width="1" opacity="1"/><line transform="translate(0,271)" x2="-5" y2="0" stroke="#888" stroke-width="1" opacity="1"/><line transform="translate(0,221)" x2="-5" y2="0" stroke="#888" stroke-width="1" opacity="1"/><line transform="translate(0,176)" x2="-5" y2="0" stroke="#888" stroke-width="1" opacity="1"/><line transform="translate(0,135)" x2="-5" y2="0" stroke="#888" stroke-width="1" opacity="1"/><line transform="translate(0,98)" x2="-5" y2="0" stroke="#888" stroke-width="1" opacity="1"/><line transform="translate(0,63)" x2="-5" y2="0" stroke="#888" stroke-width="1" opacity="1"/><line transform="translate(0,31)" x2="-5" y2="0" stroke="#888" stroke-width="1" opacity="1"/><line transform="translate(0,0)" x2="-5" y2="0" stroke="#888" stroke-width="1" opacity="1"/></g><g class="mark-text role-axis-label" pointer-events="none"><text text-anchor="end" transform="translate(-7,603)" font-family="sans-serif" font-size="10px" fill="#000" opacity="1">0.0</text><text text-anchor="end" transform="translate(-7,413.2633403898972)" font-family="sans-serif" font-size="10px" fill="#000" opacity="1">0.5</text><text text-anchor="end" transform="translate(-7,334.67184270002525)" font-family="sans-serif" font-size="10px" fill="#000" opacity="1">1.0</text><text text-anchor="end" transform="translate(-7,274.36646549690033)" font-family="sans-serif" font-size="10px" fill="#000" opacity="1">1.5</text><text text-anchor="end" transform="translate(-7,223.52668077979448)" font-family="sans-serif" font-size="10px" fill="#000" opacity="1">2.0</text><text text-anchor="end" transform="translate(-7,178.73593128807147)" font-family="sans-serif" font-size="10px" fill="#000" opacity="1">2.5</text><text text-anchor="end" transform="translate(-7,138.24199845511004)" font-family="sans-serif" font-size="10px" fill="#000" opacity="1">3.0</text><text text-anchor="end" transform="translate(-7,101.00398407955473)" font-family="sans-serif" font-size="10px" fill="#000" opacity="1">3.5</text><text text-anchor="end" transform="translate(-7,66.34368540005049)" font-family="sans-serif" font-size="10px" fill="#000" opacity="1">4.0</text><text text-anchor="end" transform="translate(-7,33.790021169691805)" font-family="sans-serif" font-size="10px" fill="#000" opacity="1">4.5</text><text text-anchor="end" transform="translate(-7,3)" font-family="sans-serif" font-size="10px" fill="#000" opacity="1">5.0</text></g><g class="mark-rule role-axis-domain" pointer-events="none"><line transform="translate(0,600)" x2="0" y2="-600" stroke="#888" stroke-width="1" opacity="1"/></g><g class="mark-text role-axis-title" pointer-events="none"><text text-anchor="middle" transform="translate(-24.9013671875,300) rotate(-90) translate(0,-2)" font-family="sans-serif" font-size="11px" font-weight="bold" fill="#000" opacity="1">dN/dS estimate</text></g></g><path class="foreground" aria-hidden="true" d="" pointer-events="none" display="none"/></g></g><g class="mark-symbol role-mark layer_0_marks" clip-path="url(#clip1)" role="graphics-object" aria-roledescription="symbol mark container"><path aria-label="Codon Site: 1; dN/dS estimate: 0" role="graphics-symbol" aria-roledescription="circle" transform="translate(12.307692307692308,600)" d="M4.472,0A4.472,4.472,0,1,1,-4.472,0A4.472,4.472,0,1,1,4.472,0" fill="lightgray" stroke-width="2" opacity="0.9"/><path aria-label="Codon Site: 2; dN/dS estimate: 0" role="graphics-symbol" aria-roledescription="circle" transform="translate(24.615384615384617,600)" d="M4.472,0A4.472,4.472,0,1,1,-4.472,0A4.472,4.472,0,1,1,4.472,0" fill="lightgray" stroke-width="2" opacity="0.9"/><path aria-label="Codon Site: 3; dN/dS estimate: 0" role="graphics-symbol" aria-roledescription="circle" transform="translate(36.92307692307693,600)" d="M4.472,0A4.472,4.472,0,1,1,-4.472,0A4.472,4.472,0,1,1,4.472,0" fill="lightgray" stroke-width="2" opacity="0.9"/><path aria-label="Codon Site: 4; dN/dS estimate: 0" role="graphics-symbol" aria-roledescription="circle" transform="translate(49.23076923076923,600)" d="M4.472,0A4.472,4.472,0,1,1,-4.472,0A4.472,4.472,0,1,1,4.472,0" fill="lightgray" stroke-width="2" opacity="0.9"/><path aria-label="Codon Site: 5; dN/dS estimate: 0.303989753604" role="graphics-symbol" aria-roledescription="circle" transform="translate(61.53846153846154,452.05655722712885)" d="M4.472,0A4.472,4.472,0,1,1,-4.472,0A4.472,4.472,0,1,1,4.472,0" fill="lightgray" stroke-width="2" opacity="0.9"/><path aria-label="Codon Site: 6; dN/dS estimate: 0" role="graphics-symbol" aria-roledescription="circle" transform="translate(73.84615384615385,600)" d="M4.472,0A4.472,4.472,0,1,1,-4.472,0A4.472,4.472,0,1,1,4.472,0" fill="lightgray" stroke-width="2" opacity="0.9"/><path aria-label="Codon Site: 7; dN/dS estimate: 0" role="graphics-symbol" aria-roledescription="circle" transform="translate(86.15384615384616,600)" d="M4.472,0A4.472,4.472,0,1,1,-4.472,0A4.472,4.472,0,1,1,4.472,0" fill="lightgray" stroke-width="2" opacity="0.9"/><path aria-label="Codon Site: 8; dN/dS estimate: 0" role="graphics-symbol" aria-roledescription="circle" transform="translate(98.46153846153847,600)" d="M4.472,0A4.472,4.472,0,1,1,-4.472,0A4.472,4.472,0,1,1,4.472,0" fill="lightgray" stroke-width="2" opacity="0.9"/><path aria-label="Codon Site: 9; dN/dS estimate: 0" role="graphics-symbol" aria-roledescription="circle" transform="translate(110.76923076923077,600)" d="M4.472,0A4.472,4.472,0,1,1,-4.472,0A4.472,4.472,0,1,1,4.472,0" fill="lightgray" stroke-width="2" opacity="0.9"/><path aria-label="Codon Site: 10; dN/dS estimate: 0" role="graphics-symbol" aria-roledescription="circle" transform="translate(123.07692307692308,600)" d="M4.472,0A4.472,4.472,0,1,1,-4.472,0A4.472,4.472,0,1,1,4.472,0" fill="lightgray" stroke-width="2" opacity="0.9"/><path aria-label="Codon Site: 11; dN/dS estimate: 0" role="graphics-symbol" aria-roledescription="circle" transform="translate(135.3846153846154,600)" d="M4.472,0A4.472,4.472,0,1,1,-4.472,0A4.472,4.472,0,1,1,4.472,0" fill="lightgray" stroke-width="2" opacity="0.9"/><path aria-label="Codon Site: 12; dN/dS estimate: 0" role="graphics-symbol" aria-roledescription="circle" transform="translate(147.6923076923077,600)" d="M4.472,0A4.472,4.472,0,1,1,-4.472,0A4.472,4.472,0,1,1,4.472,0" fill="lightgray" stroke-width="2" opacity="0.9"/><path aria-label="Codon Site: 13; dN/dS estimate: 0" role="graphics-symbol" aria-roledescription="circle" transform="translate(160,600)" d="M4.472,0A4.472,4.472,0,1,1,-4.472,0A4.472,4.472,0,1,1,4.472,0" fill="lightgray" stroke-width="2" opacity="0.9"/><path aria-label="Codon Site: 14; dN/dS estimate: 0" role="graphics-symbol" aria-roledescription="circle" transform="translate(172.30769230769232,600)" d="M4.472,0A4.472,4.472,0,1,1,-4.472,0A4.472,4.472,0,1,1,4.472,0" fill="lightgray" stroke-width="2" opacity="0.9"/><path aria-label="Codon Site: 15; dN/dS estimate: 0" role="graphics-symbol" aria-roledescription="circle" transform="translate(184.6153846153846,600)" d="M4.472,0A4.472,4.472,0,1,1,-4.472,0A4.472,4.472,0,1,1,4.472,0" fill="lightgray" stroke-width="2" opacity="0.9"/><path aria-label="Codon Site: 16; dN/dS estimate: 0" role="graphics-symbol" aria-roledescription="circle" transform="translate(196.92307692307693,600)" d="M4.472,0A4.472,4.472,0,1,1,-4.472,0A4.472,4.472,0,1,1,4.472,0" fill="lightgray" stroke-width="2" opacity="0.9"/><path aria-label="Codon Site: 17; dN/dS estimate: 0" role="graphics-symbol" aria-roledescription="circle" transform="translate(209.23076923076925,600)" d="M4.472,0A4.472,4.472,0,1,1,-4.472,0A4.472,4.472,0,1,1,4.472,0" fill="lightgray" stroke-width="2" opacity="0.9"/><path aria-label="Codon Site: 18; dN/dS estimate: 0" role="graphics-symbol" aria-roledescription="circle" transform="translate(221.53846153846155,600)" d="M4.472,0A4.472,4.472,0,1,1,-4.472,0A4.472,4.472,0,1,1,4.472,0" fill="lightgray" stroke-width="2" opacity="0.9"/><path aria-label="Codon Site: 19; dN/dS estimate: 10000" role="graphics-symbol" aria-roledescription="circle" transform="translate(233.84615384615387,0)" d="M4.472,0A4.472,4.472,0,1,1,-4.472,0A4.472,4.472,0,1,1,4.472,0" fill="lightgray" stroke-width="2" opacity="0.9"/><path aria-label="Codon Site: 20; dN/dS estimate: 0" role="graphics-symbol" aria-roledescription="circle" transform="translate(246.15384615384616,600)" d="M4.472,0A4.472,4.472,0,1,1,-4.472,0A4.472,4.472,0,1,1,4.472,0" fill="lightgray" stroke-width="2" opacity="0.9"/><path aria-label="Codon Site: 21; dN/dS estimate: 0" role="graphics-symbol" aria-roledescription="circle" transform="translate(258.46153846153845,600)" d="M4.472,0A4.472,4.472,0,1,1,-4.472,0A4.472,4.472,0,1,1,4.472,0" fill="lightgray" stroke-width="2" opacity="0.9"/><path aria-label="Codon Site: 22; dN/dS estimate: 0" role="graphics-symbol" aria-roledescription="circle" transform="translate(270.7692307692308,600)" d="M4.472,0A4.472,4.472,0,1,1,-4.472,0A4.472,4.472,0,1,1,4.472,0" fill="lightgray" stroke-width="2" opacity="0.9"/><path aria-label="Codon Site: 23; dN/dS estimate: 0" role="graphics-symbol" aria-roledescription="circle" transform="translate(283.0769230769231,600)" d="M4.472,0A4.472,4.472,0,1,1,-4.472,0A4.472,4.472,0,1,1,4.472,0" fill="lightgray" stroke-width="2" opacity="0.9"/><path aria-label="Codon Site: 24; dN/dS estimate: 0" role="graphics-symbol" aria-roledescription="circle" transform="translate(295.3846153846154,600)" d="M4.472,0A4.472,4.472,0,1,1,-4.472,0A4.472,4.472,0,1,1,4.472,0" fill="lightgray" stroke-width="2" opacity="0.9"/><path aria-label="Codon Site: 25; dN/dS estimate: 0" role="graphics-symbol" aria-roledescription="circle" transform="translate(307.69230769230774,600)" d="M4.472,0A4.472,4.472,0,1,1,-4.472,0A4.472,4.472,0,1,1,4.472,0" fill="lightgray" stroke-width="2" opacity="0.9"/><path aria-label="Codon Site: 26; dN/dS estimate: 0.632480136148" role="graphics-symbol" aria-roledescription="circle" transform="translate(320,386.60232006265596)" d="M4.472,0A4.472,4.472,0,1,1,-4.472,0A4.472,4.472,0,1,1,4.472,0" fill="lightgray" stroke-width="2" opacity="0.9"/><path aria-label="Codon Site: 27; dN/dS estimate: 0.0635150157219" role="graphics-symbol" aria-roledescription="circle" transform="translate(332.3076923076923,532.3754398759296)" d="M4.472,0A4.472,4.472,0,1,1,-4.472,0A4.472,4.472,0,1,1,4.472,0" fill="lightgray" stroke-width="2" opacity="0.9"/><path aria-label="Codon Site: 28; dN/dS estimate: 0.551495298925" role="graphics-symbol" aria-roledescription="circle" transform="translate(344.61538461538464,400.7321864358541)" d="M4.472,0A4.472,4.472,0,1,1,-4.472,0A4.472,4.472,0,1,1,4.472,0" fill="lightgray" stroke-width="2" opacity="0.9"/><path aria-label="Codon Site: 29; dN/dS estimate: 0" role="graphics-symbol" aria-roledescription="circle" transform="translate(356.92307692307696,600)" d="M4.472,0A4.472,4.472,0,1,1,-4.472,0A4.472,4.472,0,1,1,4.472,0" fill="lightgray" stroke-width="2" opacity="0.9"/><path aria-label="Codon Site: 30; dN/dS estimate: 0" role="graphics-symbol" aria-roledescription="circle" transform="translate(369.2307692307692,600)" d="M4.472,0A4.472,4.472,0,1,1,-4.472,0A4.472,4.472,0,1,1,4.472,0" fill="lightgray" stroke-width="2" opacity="0.9"/><path aria-label="Codon Site: 31; dN/dS estimate: 0.579955591502" role="graphics-symbol" aria-roledescription="circle" transform="translate(381.53846153846155,395.6551870290581)" d="M4.472,0A4.472,4.472,0,1,1,-4.472,0A4.472,4.472,0,1,1,4.472,0" fill="lightgray" stroke-width="2" opacity="0.9"/><path aria-label="Codon Site: 32; dN/dS estimate: 0.19669932358" role="graphics-symbol" aria-roledescription="circle" transform="translate(393.84615384615387,480.9943224137854)" d="M4.472,0A4.472,4.472,0,1,1,-4.472,0A4.472,4.472,0,1,1,4.472,0" fill="lightgray" stroke-width="2" opacity="0.9"/><path aria-label="Codon Site: 33; dN/dS estimate: 0.258037537733" role="graphics-symbol" aria-roledescription="circle" transform="translate(406.15384615384613,463.6962850222188)" d="M4.472,0A4.472,4.472,0,1,1,-4.472,0A4.472,4.472,0,1,1,4.472,0" fill="lightgray" stroke-width="2" opacity="0.9"/><path aria-label="Codon Site: 34; dN/dS estimate: 1.04636749188" role="graphics-symbol" aria-roledescription="circle" transform="translate(418.4615384615385,325.52147731474207)" d="M4.472,0A4.472,4.472,0,1,1,-4.472,0A4.472,4.472,0,1,1,4.472,0" fill="lightgray" stroke-width="2" opacity="0.9"/><path aria-label="Codon Site: 35; dN/dS estimate: 0.160651443758" role="graphics-symbol" aria-roledescription="circle" transform="translate(430.7692307692308,492.4504581574552)" d="M4.472,0A4.472,4.472,0,1,1,-4.472,0A4.472,4.472,0,1,1,4.472,0" fill="lightgray" stroke-width="2" opacity="0.9"/><path aria-label="Codon Site: 36; dN/dS estimate: 0.122546704523" role="graphics-symbol" aria-roledescription="circle" transform="translate(443.0769230769231,506.06724359592505)" d="M4.472,0A4.472,4.472,0,1,1,-4.472,0A4.472,4.472,0,1,1,4.472,0" fill="lightgray" stroke-width="2" opacity="0.9"/><path aria-label="Codon Site: 37; dN/dS estimate: 0" role="graphics-symbol" aria-roledescription="circle" transform="translate(455.38461538461536,600)" d="M4.472,0A4.472,4.472,0,1,1,-4.472,0A4.472,4.472,0,1,1,4.472,0" fill="lightgray" stroke-width="2" opacity="0.9"/><path aria-label="Codon Site: 38; dN/dS estimate: 0" role="graphics-symbol" aria-roledescription="circle" transform="translate(467.69230769230774,600)" d="M4.472,0A4.472,4.472,0,1,1,-4.472,0A4.472,4.472,0,1,1,4.472,0" fill="lightgray" stroke-width="2" opacity="0.9"/><path aria-label="Codon Site: 39; dN/dS estimate: 0" role="graphics-symbol" aria-roledescription="circle" transform="translate(480,600)" d="M4.472,0A4.472,4.472,0,1,1,-4.472,0A4.472,4.472,0,1,1,4.472,0" fill="lightgray" stroke-width="2" opacity="0.9"/><path aria-label="Codon Site: 40; dN/dS estimate: 10000" role="graphics-symbol" aria-roledescription="circle" transform="translate(492.3076923076923,0)" d="M4.472,0A4.472,4.472,0,1,1,-4.472,0A4.472,4.472,0,1,1,4.472,0" fill="lightgray" stroke-width="2" opacity="0.9"/><path aria-label="Codon Site: 41; dN/dS estimate: 1.03186680705" role="graphics-symbol" aria-roledescription="circle" transform="translate(504.6153846153846,327.42999044658524)" d="M4.472,0A4.472,4.472,0,1,1,-4.472,0A4.472,4.472,0,1,1,4.472,0" fill="lightgray" stroke-width="2" opacity="0.9"/><path aria-label="Codon Site: 42; dN/dS estimate: 0" role="graphics-symbol" aria-roledescription="circle" transform="translate(516.9230769230769,600)" d="M4.472,0A4.472,4.472,0,1,1,-4.472,0A4.472,4.472,0,1,1,4.472,0" fill="red" stroke-width="2" opacity="0.9"/><path aria-label="Codon Site: 43; dN/dS estimate: 1.00939250953" role="graphics-symbol" aria-roledescription="circle" transform="translate(529.2307692307692,330.41465046022097)" d="M4.472,0A4.472,4.472,0,1,1,-4.472,0A4.472,4.472,0,1,1,4.472,0" fill="lightgray" stroke-width="2" opacity="0.9"/><path aria-label="Codon Site: 44; dN/dS estimate: 0.369430802448" role="graphics-symbol" aria-roledescription="circle" transform="translate(541.5384615384615,436.90794692491824)" d="M4.472,0A4.472,4.472,0,1,1,-4.472,0A4.472,4.472,0,1,1,4.472,0" fill="lightgray" stroke-width="2" opacity="0.9"/><path aria-label="Codon Site: 45; dN/dS estimate: 0.160278221842" role="graphics-symbol" aria-roledescription="circle" transform="translate(553.8461538461538,492.575459169726)" d="M4.472,0A4.472,4.472,0,1,1,-4.472,0A4.472,4.472,0,1,1,4.472,0" fill="lightgray" stroke-width="2" opacity="0.9"/><path aria-label="Codon Site: 46; dN/dS estimate: 0.649178361585" role="graphics-symbol" aria-roledescription="circle" transform="translate(566.1538461538462,383.80369560482626)" d="M4.472,0A4.472,4.472,0,1,1,-4.472,0A4.472,4.472,0,1,1,4.472,0" fill="lightgray" stroke-width="2" opacity="0.9"/><path aria-label="Codon Site: 47; dN/dS estimate: 0.392041599322" role="graphics-symbol" aria-roledescription="circle" transform="translate(578.4615384615385,431.9910860960678)" d="M4.472,0A4.472,4.472,0,1,1,-4.472,0A4.472,4.472,0,1,1,4.472,0" fill="lightgray" stroke-width="2" opacity="0.9"/><path aria-label="Codon Site: 48; dN/dS estimate: 0.10741656013" role="graphics-symbol" aria-roledescription="circle" transform="translate(590.7692307692308,512.056880147668)" d="M4.472,0A4.472,4.472,0,1,1,-4.472,0A4.472,4.472,0,1,1,4.472,0" fill="lightgray" stroke-width="2" opacity="0.9"/><path aria-label="Codon Site: 49; dN/dS estimate: 0" role="graphics-symbol" aria-roledescription="circle" transform="translate(603.0769230769231,600)" d="M4.472,0A4.472,4.472,0,1,1,-4.472,0A4.472,4.472,0,1,1,4.472,0" fill="lightgray" stroke-width="2" opacity="0.9"/><path aria-label="Codon Site: 50; dN/dS estimate: 0" role="graphics-symbol" aria-roledescription="circle" transform="translate(615.3846153846155,600)" d="M4.472,0A4.472,4.472,0,1,1,-4.472,0A4.472,4.472,0,1,1,4.472,0" fill="lightgray" stroke-width="2" opacity="0.9"/><path aria-label="Codon Site: 51; dN/dS estimate: 1.16047730291" role="graphics-symbol" aria-roledescription="circle" transform="translate(627.6923076923077,310.94227944962734)" d="M4.472,0A4.472,4.472,0,1,1,-4.472,0A4.472,4.472,0,1,1,4.472,0" fill="lightgray" stroke-width="2" opacity="0.9"/><path aria-label="Codon Site: 52; dN/dS estimate: 10000" role="graphics-symbol" aria-roledescription="circle" transform="translate(640,0)" d="M4.472,0A4.472,4.472,0,1,1,-4.472,0A4.472,4.472,0,1,1,4.472,0" fill="lightgray" stroke-width="2" opacity="0.9"/><path aria-label="Codon Site: 53; dN/dS estimate: 0.0597074308734" role="graphics-symbol" aria-roledescription="circle" transform="translate(652.3076923076923,534.4337356341973)" d="M4.472,0A4.472,4.472,0,1,1,-4.472,0A4.472,4.472,0,1,1,4.472,0" fill="lightgray" stroke-width="2" opacity="0.9"/><path aria-label="Codon Site: 54; dN/dS estimate: 0.112298209247" role="graphics-symbol" aria-roledescription="circle" transform="translate(664.6153846153846,510.08075252866144)" d="M4.472,0A4.472,4.472,0,1,1,-4.472,0A4.472,4.472,0,1,1,4.472,0" fill="lightgray" stroke-width="2" opacity="0.9"/><path aria-label="Codon Site: 55; dN/dS estimate: 0.283241734973" role="graphics-symbol" aria-roledescription="circle" transform="translate(676.9230769230769,457.19452070024477)" d="M4.472,0A4.472,4.472,0,1,1,-4.472,0A4.472,4.472,0,1,1,4.472,0" fill="lightgray" stroke-width="2" opacity="0.9"/><path aria-label="Codon Site: 56; dN/dS estimate: 0.76108929042" role="graphics-symbol" aria-roledescription="circle" transform="translate(689.2307692307693,365.90935749104034)" d="M4.472,0A4.472,4.472,0,1,1,-4.472,0A4.472,4.472,0,1,1,4.472,0" fill="lightgray" stroke-width="2" opacity="0.9"/><path aria-label="Codon Site: 57; dN/dS estimate: 0" role="graphics-symbol" aria-roledescription="circle" transform="translate(701.5384615384615,600)" d="M4.472,0A4.472,4.472,0,1,1,-4.472,0A4.472,4.472,0,1,1,4.472,0" fill="lightgray" stroke-width="2" opacity="0.9"/><path aria-label="Codon Site: 58; dN/dS estimate: 0" role="graphics-symbol" aria-roledescription="circle" transform="translate(713.8461538461539,600)" d="M4.472,0A4.472,4.472,0,1,1,-4.472,0A4.472,4.472,0,1,1,4.472,0" fill="lightgray" stroke-width="2" opacity="0.9"/><path aria-label="Codon Site: 59; dN/dS estimate: 0" role="graphics-symbol" aria-roledescription="circle" transform="translate(726.1538461538462,600)" d="M4.472,0A4.472,4.472,0,1,1,-4.472,0A4.472,4.472,0,1,1,4.472,0" fill="lightgray" stroke-width="2" opacity="0.9"/><path aria-label="Codon Site: 60; dN/dS estimate: 0" role="graphics-symbol" aria-roledescription="circle" transform="translate(738.4615384615385,600)" d="M4.472,0A4.472,4.472,0,1,1,-4.472,0A4.472,4.472,0,1,1,4.472,0" fill="lightgray" stroke-width="2" opacity="0.9"/><path aria-label="Codon Site: 61; dN/dS estimate: 0" role="graphics-symbol" aria-roledescription="circle" transform="translate(750.7692307692307,600)" d="M4.472,0A4.472,4.472,0,1,1,-4.472,0A4.472,4.472,0,1,1,4.472,0" fill="lightgray" stroke-width="2" opacity="0.9"/><path aria-label="Codon Site: 62; dN/dS estimate: 0" role="graphics-symbol" aria-roledescription="circle" transform="translate(763.0769230769231,600)" d="M4.472,0A4.472,4.472,0,1,1,-4.472,0A4.472,4.472,0,1,1,4.472,0" fill="lightgray" stroke-width="2" opacity="0.9"/><path aria-label="Codon Site: 63; dN/dS estimate: 0" role="graphics-symbol" aria-roledescription="circle" transform="translate(775.3846153846154,600)" d="M4.472,0A4.472,4.472,0,1,1,-4.472,0A4.472,4.472,0,1,1,4.472,0" fill="lightgray" stroke-width="2" opacity="0.9"/><path aria-label="Codon Site: 64; dN/dS estimate: 0.0677759666465" role="graphics-symbol" aria-roledescription="circle" transform="translate(787.6923076923077,530.1439365656015)" d="M4.472,0A4.472,4.472,0,1,1,-4.472,0A4.472,4.472,0,1,1,4.472,0" fill="lightgray" stroke-width="2" opacity="0.9"/><path aria-label="Codon Site: 65; dN/dS estimate: 0.312961067485" role="graphics-symbol" aria-roledescription="circle" transform="translate(800,449.88938458950156)" d="M4.472,0A4.472,4.472,0,1,1,-4.472,0A4.472,4.472,0,1,1,4.472,0" fill="lightgray" stroke-width="2" opacity="0.9"/></g><g class="mark-area role-mark layer_1_marks" role="graphics-object" aria-roledescription="area mark container"><path aria-label="CodonSite: 1; dN/dS LB: 0; dN/dS UB: 0" role="graphics-symbol" aria-roledescription="area mark" d="M12.308,600L24.615,600L36.923,600L49.231,600L61.538,566.026L73.846,600L86.154,600L98.462,600L110.769,600L123.077,600L135.385,600L147.692,600L160,600L172.308,600L184.615,600L196.923,600L209.231,600L221.538,600L233.846,0L246.154,600L258.462,600L270.769,600L283.077,600L295.385,600L307.692,600L320,480.638L332.308,568.415L344.615,481.466L356.923,600L369.231,600L381.538,502.022L393.846,537.977L406.154,536.268L418.462,464.457L430.769,545.962L443.077,562.191L455.385,600L467.692,600L480,600L492.308,0L504.615,492.326L516.923,600L529.231,470.545L541.538,520.499L553.846,574.696L566.154,492.799L578.462,533.349L590.769,564.691L603.077,600L615.385,600L627.692,489.267L640,0L652.308,584.511L664.615,564.073L676.923,531.022L689.231,508.791L701.538,600L713.846,600L726.154,600L738.462,600L750.769,600L763.077,600L775.385,600L787.692,584.311L800,562.537L800,0L787.692,0L775.385,600L763.077,600L750.769,600L738.462,600L726.154,600L713.846,600L701.538,600L689.231,128.422L676.923,346.706L664.615,432.115L652.308,453.111L640,0L627.692,15.345L615.385,600L603.077,600L590.769,434.966L578.462,269.946L566.154,227.298L553.846,358.236L541.538,315.033L529.231,109.295L516.923,507.185L504.615,39.15L492.308,0L480,600L467.692,600L455.385,600L443.077,417.106L430.769,370.871L418.462,64.066L406.154,274.351L393.846,381.198L381.538,217.493L369.231,600L356.923,600L344.615,273.534L332.308,434.013L320,242.568L307.692,600L295.385,600L283.077,600L270.769,600L258.462,484.597L246.154,600L233.846,0L221.538,600L209.231,600L196.923,600L184.615,600L172.308,600L160,600L147.692,600L135.385,472.759L123.077,600L110.769,600L98.462,600L86.154,600L73.846,600L61.538,226.016L49.231,600L36.923,600L24.615,600L12.308,600Z" fill="#4c78a8" opacity="0.5"/></g></g><path class="foreground" aria-hidden="true" d="" display="none"/></g></g></g><defs><clipPath id="clip1"><rect x="0" y="0" width="800" height="600"/></clipPath></defs></svg>