<svg xmlns="http://www.w3.org/2000/svg" xmlns:xlink="http://www.w3.org/1999/xlink" version="1.1" class="marks" width="847" height="647" viewBox="0 0 847 647"><rect width="847" height="647" fill="white"/><g fill="none" stroke-miterlimit="10" transform="translate(41,10)"><g class="mark-group role-frame root" role="graphics-object" aria-roledescription="group mark container"><g transform="translate(0,0)"><path class="background" aria-hidden="true" d="M0.5,0.5h800v600h-800Z" stroke="#ddd"/><g><g class="mark-group role-axis" aria-hidden="true"><g transform="translate(0.5,600.5)"><path class="background" aria-hidden="true" d="M0,0h0v0h0Z" pointer-events="none"/><g><g class="mark-rule role-axis-grid" pointer-events="none"><line transform="translate(0,-600)" x2="0" y2="600" stroke="#ddd" stroke-width="1" opacity="1"/><line transform="translate(44,-600)" x2="0" y2="600" stroke="#ddd" stroke-width="1" opacity="1"/><line transform="translate(89,-600)" x2="0" y2="600" stroke="#ddd" stroke-width="1" opacity="1"/><line transform="translate(133,-600)" x2="0" y2="600" stroke="#ddd" stroke-width="1" opacity="1"/><line transform="translate(178,-600)" x2="0" y2="600" stroke="#ddd" stroke-width="1" opacity="1"/><line transform="translate(222,-600)" x2="0" y2="600" stroke="#ddd" stroke-width="1" opacity="1"/><line transform="translate(267,-600)" x2="0" y2="600" stroke="#ddd" stroke-width="1" opacity="1"/><line transform="translate(311,-600)" x2="0" y2="600" stroke="#ddd" stroke-width="1" opacity="1"/><line transform="translate(356,-600)" x2="0" y2="600" stroke="#ddd" stroke-width="1" opacity="1"/><line transform="translate(400,-600)" x2="0" y2="600" stroke="#ddd" stroke-width="1" opacity="1"/><line transform="translate(444,-600)" x2="0" y2="600" stroke="#ddd" stroke-width="1" opacity="1"/><line transform="translate(489,-600)" x2="0" y2="600" stroke="#ddd" stroke-width="1" opacity="1"/><line transform="translate(533,-600)" x2="0" y2="600" stroke="#ddd" stroke-width="1" opacity="1"/><line transform="translate(578,-600)" x2="0" y2="600" stroke="#ddd" stroke-width="1" opacity="1"/><line transform="translate(622,-600)" x2="0" y2="600" stroke="#ddd" stroke-width="1" opacity="1"/><line transform="translate(667,-600)" x2="0" y2="600" stroke="#ddd" stroke-width="1" opacity="1"/><line transform="translate(711,-600)" x2="0" y2="600" stroke="#ddd" stroke-width="1" opacity="1"/><line transform="translate(756,-600)" x2="0" y2="600" stroke="#ddd" stroke-width="1" opacity="1"/><line transform="translate(800,-600)" x2="0" y2="600" stroke="#ddd" stroke-width="1" opacity="1"/></g></g><path class="foreground" aria-hidden="true" d="" pointer-events="none" display="none"/></g></g><g class="mark-group role-axis" aria-hidden="true"><g transform="translate(0.5,0.5)"><path class="background" aria-hidden="true" d="M0,0h0v0h0Z" pointer-events="none"/><g><g class="mark-rule role-axis-grid" pointer-events="none"><line transform="translate(0,600)" x2="800" y2="0" stroke="#ddd" stroke-width="1" opacity="1"/><line transform="translate(0,410)" x2="800" y2="0" stroke="#ddd" stroke-width="1" opacity="1"/><line transform="translate(0,332)" x2="800" y2="0" stroke="#ddd" stroke-width="1" opacity="1"/><line transform="translate(0,271)" x2="800" y2="0" stroke="#ddd" stroke-width="1" opacity="1"/><line transform="translate(0,221)" x2="800" y2="0" stroke="#ddd" stroke-width="1" opacity="1"/><line transform="translate(0,176)" x2="800" y2="0" stroke="#ddd" stroke-width="1" opacity="1"/><line transform="translate(0,135)" x2="800" y2="0" stroke="#ddd" stroke-width="1" opacity="1"/><line transform="translate(0,98)" x2="800" y2="0" stroke="#ddd" stroke-width="1" opacity="1"/><line transform="translate(0,63)" x2="800" y2="0" stroke="#ddd" stroke-width="1" opacity="1"/><line transform="translate(0,31)" x2="800" y2="0" stroke="#ddd" stroke-width="1" opacity="1"/><line transform="translate(0,0)" x2="800" y2="0" stroke="#ddd" stroke-width="1" opacity="1"/></g></g><path class="foreground" aria-hidden="true" d="" pointer-events="none" display="none"/></g></g><g class="mark-group role-axis" role="graphics-symbol" aria-roledescription="axis" aria-label="X-axis titled 'Codon Site' for a linear scale with values from 0 to 90"><g transform="translate(0.5,600.5)"><path class="background" aria-hidden="true" d="M0,0h0v0h0Z" pointer-events="none"/><g><g class="mark-rule role-axis-tick" pointer-events="none"><line transform="translate(0,0)" x2="0" y2="5" stroke="#888" stroke-width="1" opacity="1"/><line transform="translate(44,0)" x2="0" y2="5" stroke="#888" stroke-width="1" opacity="1"/><line transform="translate(89,0)" x2="0" y2="5" stroke="#888" stroke-width="1" opacity="1"/><line transform="translate(133,0)" x2="0" y2="5" stroke="#888" stroke-width="1" opacity="1"/><line transform="translate(178,0)" x2="0" y2="5" stroke="#888" stroke-width="1" opacity="1"/><line transform="translate(222,0)" x2="0" y2="5" stroke="#888" stroke-width="1" opacity="1"/><line transform="translate(267,0)" x2="0" y2="5" stroke="#888" stroke-width="1" opacity="1"/><line transform="translate(311,0)" x2="0" y2="5" stroke="#888" stroke-width="1" opacity="1"/><line transform="translate(356,0)" x2="0" y2="5" stroke="#888" stroke-width="1" opacity="1"/><line transform="translate(400,0)" x2="0" y2="5" stroke="#888" stroke-width="1" opacity="1"/><line transform="translate(444,0)" x2="0" y2="5" stroke="#888" stroke-width="1" opacity="1"/><line transform="translate(489,0)" x2="0" y2="5" stroke="#888" stroke-width="1" opacity="1"/><line transform="translate(533,0)" x2="0" y2="5" stroke="#888" stroke-width="1" opacity="1"/><line transform="translate(578,0)" x2="0" y2="5" stroke="#888" stroke-width="1" opacity="1"/><line transform="translate(622,0)" x2="0" y2="5" stroke="#888" stroke-width="1" opacity="1"/><line transform="translate(667,0)" x2="0" y2="5" stroke="#888" stroke-width="1" opacity="1"/><line transform="translate(711,0)" x2="0" y2="5" stroke="#888" stroke-width="1" opacity="1"/><line transform="translate(756,0)" x2="0" y2="5" stroke="#888" stroke-width="1" opacity="1"/><line transform="translate(800,0)" x2="0" y2="5" stroke="#888" stroke-width="1" opacity="1"/></g><g class="mark-text role-axis-label" pointer-events="none"><text text-anchor="start" transform="translate(0,15)" font-family="sans-serif" font-size="10px" fill="#000" opacity="1">0</text><text text-anchor="middle" transform="translate(44.44444444444444,15)" font-family="sans-serif" font-size="10px" fill="#000" opacity="1">5</text><text text-anchor="middle" transform="translate(88.88888888888889,15)" font-family="sans-serif" font-size="10px" fill="#000" opacity="1">10</text><text text-anchor="middle" transform="translate(133.33333333333331,15)" font-family="sans-serif" font-size="10px" fill="#000" opacity="1">15</text><text text-anchor="middle" transform="translate(177.77777777777777,15)" font-family="sans-serif" font-size="10px" fill="#000" opacity="1">20</text><text text-anchor="middle" transform="translate(222.22222222222223,15)" font-family="sans-serif" font-size="10px" fill="#000" opacity="1">25</text><text text-anchor="middle" transform="translate(266.66666666666663,15)" font-family="sans-serif" font-size="10px" fill="#000" opacity="1">30</text><text text-anchor="middle" transform="translate(311.11111111111114,15)" font-family="sans-serif" font-size="10px" fill="#000" opacity="1">35</text><text text-anchor="middle" transform="translate(355.55555555555554,15)" font-family="sans-serif" font-size="10px" fill="#000" opacity="1">40</text><text text-anchor="middle" transform="translate(400,15)" font-family="sans-serif" font-size="10px" fill="#000" opacity="1">45</text><text text-anchor="middle" transform="translate(444.44444444444446,15)" font-family="sans-serif" font-size="10px" fill="#000" opacity="1">50</text><text text-anchor="middle" transform="translate(488.8888888888889,15)" font-family="sans-serif" font-size="10px" fill="#000" opacity="1">55</text><text text-anchor="middle" transform="translate(533.3333333333333,15)" font-family="sans-serif" font-size="10px" fill="#000" opacity="1">60</text><text text-anchor="middle" transform="translate(577.7777777777777,15)" font-family="sans-serif" font-size="10px" fill="#000" opacity="1">65</text><text text-anchor="middle" transform="translate(622.2222222222223,15)" font-family="sans-serif" font-size="10px" fill="#000" opacity="1">70</text><text text-anchor="middle" transform="translate(666.6666666666667,15)" font-family="sans-serif" font-size="10px" fill="#000" opacity="1">75</text><text text-anchor="middle" transform="translate(711.1111111111111,15)" font-family="sans-serif" font-size="10px" fill="#000" opacity="1">80</text><text text-anchor="middle" transform="translate(755.5555555555555,15)" font-family="sans-serif" font-size="10px" fill="#000" opacity="1">85</text><text text-anchor="end" transform="translate(800,15)" font-family="sans-serif" font-size="10px" fill="#000" opacity="1">90</text></g><g class="mark-rule role-axis-domain" pointer-events="none"><line transform="translate(0,0)" x2="800" y2="0" stroke="#888" stroke-width="1" opacity="1"/></g><g class="mark-text role-axis-title" pointer-events="none"><text text-anchor="middle" transform="translate(400,30)" font-family="sans-serif" font-size="11px" font-weight="bold" fill="#000" opacity="1">Codon Site</text></g></g><path class="foreground" aria-hidden="true" d="" pointer-events="none" display="none"/></g></g><g class="mark-group role-axis" role="graphics-symbol" aria-roledescription="axis" aria-label="Y-axis titled 'dN/dS estimate' for a sqrt scale with values from 0 to 5"><g transform="translate(0.5,0.5)"><path class="background" aria-hidden="true" d="M0,0h0v0h0Z" pointer-events="none"/><g><g class="mark-rule role-axis-tick" pointer-events="none"><line transform="translate(0,600)" x2="-5" y2="0" stroke="#888" stroke-width="1" opacity="1"/><line transform="translate(0,410)" x2="-5" y2="0" stroke="#888" stroke-width="1" opacity="1"/><line transform="translate(0,332)" x2="-5" y2="0" stroke="#888" stroke-width="1" opacity="1"/><line transform="translate(0,271)" x2="-5" y2="0" stroke="#888" stroke-width="1" opacity="1"/><line transform="translate(0,221)" x2="-5" y2="0" stroke="#888" stroke-width="1" opacity="1"/><line transform="translate(0,176)" x2="-5" y2="0" stroke="#888" stroke-width="1" opacity="1"/><line transform="translate(0,135)" x2="-5" y2="0" stroke="#888" stroke-width="1" opacity="1"/><line transform="translate(0,98)" x2="-5" y2="0" stroke="#888" stroke-width="1" opacity="1"/><line transform="translate(0,63)" x2="-5" y2="0" stroke="#888" stroke-width="1" opacity="1"/><line transform="translate(0,31)" x2="-5" y2="0" stroke="#888" stroke-width="1" opacity="1"/><line transform="translate(0,0)" x2="-5" y2="0" stroke="#888" stroke-width="1" opacity="1"/></g><g class="mark-text role-axis-label" pointer-events="none"><text text-anchor="end" transform="translate(-7,603)" font-family="sans-serif" font-size="10px" fill="#000" opacity="1">0.0</text><text text-anchor="end" transform="translate(-7,413.2633403898972)" font-family="sans-serif" font-size="10px" fill="#000" opacity="1">0.5</text><text text-anchor="end" transform="translate(-7,334.67184270002525)" font-family="sans-serif" font-size="10px" fill="#000" opacity="1">1.0</text><text text-anchor="end" transform="translate(-7,274.36646549690033)" font-family="sans-serif" font-size="10px" fill="#000" opacity="1">1.5</text><text text-anchor="end" transform="translate(-7,223.52668077979448)" font-family="sans-serif" font-size="10px" fill="#000" opacity="1">2.0</text><text text-anchor="end" transform="translate(-7,178.73593128807147)" font-family="sans-serif" font-size="10px" fill="#000" opacity="1">2.5</text><text text-anchor="end" transform="translate(-7,138.24199845511004)" font-family="sans-serif" font-size="10px" fill="#000" opacity="1">3.0</text><text text-anchor="end" transform="translate(-7,101.00398407955473)" font-family="sans-serif" font-size="10px" fill="#000" opacity="1">3.5</text><text text-anchor="end" transform="translate(-7,66.34368540005049)" font-family="sans-serif" font-size="10px" fill="#000" opacity="1">4.0</text><text text-anchor="end" transform="translate(-7,33.790021169691805)" font-family="sans-serif" font-size="10px" fill="#000" opacity="1">4.5</text><text text-anchor="end" transform="translate(-7,3)" font-family="sans-serif" font-size="10px" fill="#000" opacity="1">5.0</text></g><g class="mark-rule role-axis-domain" pointer-events="none"><line transform="translate(0,600)" x2="0" y2="-600" stroke="#888" stroke-width="1" opacity="1"/></g><g class="mark-text role-axis-title" pointer-events="none"><text text-anchor="middle" transform="translate(-24.9013671875,300) rotate(-90) translate(0,-2)" font-family="sans-serif" font-size="11px" font-weight="bold" fill="#000" opacity="1">dN/dS estimate</text></g></g><path class="foreground" aria-hidden="true" d="" pointer-events="none" display="none"/></g></g><g class="mark-symbol role-mark layer_0_marks" clip-path="url(#clip1)" role="graphics-object" aria-roledescription="symbol mark container"><path aria-label="Codon Site: 1; dN/dS estimate: 0" role="graphics-symbol" aria-roledescription="circle" transform="translate(8.88888888888889,600)" d="M4.472,0A4.472,4.472,0,1,1,-4.472,0A4.472,4.472,0,1,1,4.472,0" fill="lightgray" stroke-width="2" opacity="0.9"/><path aria-label="Codon Site: 2; dN/dS estimate: 0" role="graphics-symbol" aria-roledescription="circle" transform="translate(17.77777777777778,600)" d="M4.472,0A4.472,4.472,0,1,1,-4.472,0A4.472,4.472,0,1,1,4.472,0" fill="lightgray" stroke-width="2" opacity="0.9"/><path aria-label="Codon Site: 3; dN/dS estimate: 0" role="graphics-symbol" aria-roledescription="circle" transform="translate(26.666666666666668,600)" d="M4.472,0A4.472,4.472,0,1,1,-4.472,0A4.472,4.472,0,1,1,4.472,0" fill="lightgray" stroke-width="2" opacity="0.9"/><path aria-label="Codon Site: 4; dN/dS estimate: 0" role="graphics-symbol" aria-roledescription="circle" transform="translate(35.55555555555556,600)" d="M4.472,0A4.472,4.472,0,1,1,-4.472,0A4.472,4.472,0,1,1,4.472,0" fill="lightgray" stroke-width="2" opacity="0.9"/><path aria-label="Codon Site: 5; dN/dS estimate: 0" role="graphics-symbol" aria-roledescription="circle" transform="translate(44.44444444444444,600)" d="M4.472,0A4.472,4.472,0,1,1,-4.472,0A4.472,4.472,0,1,1,4.472,0" fill="lightgray" stroke-width="2" opacity="0.9"/><path aria-label="Codon Site: 6; dN/dS estimate: 0" role="graphics-symbol" aria-roledescription="circle" transform="translate(53.333333333333336,600)" d="M4.472,0A4.472,4.472,0,1,1,-4.472,0A4.472,4.472,0,1,1,4.472,0" fill="lightgray" stroke-width="2" opacity="0.9"/><path aria-label="Codon Site: 7; dN/dS estimate: 0" role="graphics-symbol" aria-roledescription="circle" transform="translate(62.22222222222222,600)" d="M4.472,0A4.472,4.472,0,1,1,-4.472,0A4.472,4.472,0,1,1,4.472,0" fill="lightgray" stroke-width="2" opacity="0.9"/><path aria-label="Codon Site: 8; dN/dS estimate: 0" role="graphics-symbol" aria-roledescription="circle" transform="translate(71.11111111111111,600)" d="M4.472,0A4.472,4.472,0,1,1,-4.472,0A4.472,4.472,0,1,1,4.472,0" fill="lightgray" stroke-width="2" opacity="0.9"/><path aria-label="Codon Site: 9; dN/dS estimate: 0" role="graphics-symbol" aria-roledescription="circle" transform="translate(80,600)" d="M4.472,0A4.472,4.472,0,1,1,-4.472,0A4.472,4.472,0,1,1,4.472,0" fill="lightgray" stroke-width="2" opacity="0.9"/><path aria-label="Codon Site: 10; dN/dS estimate: 0" role="graphics-symbol" aria-roledescription="circle" transform="translate(88.88888888888889,600)" d="M4.472,0A4.472,4.472,0,1,1,-4.472,0A4.472,4.472,0,1,1,4.472,0" fill="lightgray" stroke-width="2" opacity="0.9"/><path aria-label="Codon Site: 11; dN/dS estimate: 0" role="graphics-symbol" aria-roledescription="circle" transform="translate(97.77777777777777,600)" d="M4.472,0A4.472,4.472,0,1,1,-4.472,0A4.472,4.472,0,1,1,4.472,0" fill="lightgray" stroke-width="2" opacity="0.9"/><path aria-label="Codon Site: 12; dN/dS estimate: 0" role="graphics-symbol" aria-roledescription="circle" transform="translate(106.66666666666667,600)" d="M4.472,0A4.472,4.472,0,1,1,-4.472,0A4.472,4.472,0,1,1,4.472,0" fill="lightgray" stroke-width="2" opacity="0.9"/><path aria-label="Codon Site: 13; dN/dS estimate: 0" role="graphics-symbol" aria-roledescription="circle" transform="translate(115.55555555555554,600)" d="M4.472,0A4.472,4.472,0,1,1,-4.472,0A4.472,4.472,0,1,1,4.472,0" fill="lightgray" stroke-width="2" opacity="0.9"/><path aria-label="Codon Site: 14; dN/dS estimate: 0" role="graphics-symbol" aria-roledescription="circle" transform="translate(124.44444444444444,600)" d="M4.472,0A4.472,4.472,0,1,1,-4.472,0A4.472,4.472,0,1,1,4.472,0" fill="lightgray" stroke-width="2" opacity="0.9"/><path aria-label="Codon Site: 15; dN/dS estimate: 0" role="graphics-symbol" aria-roledescription="circle" transform="translate(133.33333333333331,600)" d="M4.472,0A4.472,4.472,0,1,1,-4.472,0A4.472,4.472,0,1,1,4.472,0" fill="lightgray" stroke-width="2" opacity="0.9"/><path aria-label="Codon Site: 16; dN/dS estimate: 0" role="graphics-symbol" aria-roledescription="circle" transform="translate(142.22222222222223,600)" d="M4.472,0A4.472,4.472,0,1,1,-4.472,0A4.472,4.472,0,1,1,4.472,0" fill="lightgray" stroke-width="2" opacity="0.9"/><path aria-label="Codon Site: 17; dN/dS estimate: 0" role="graphics-symbol" aria-roledescription="circle" transform="translate(151.11111111111111,600)" d="M4.472,0A4.472,4.472,0,1,1,-4.472,0A4.472,4.472,0,1,1,4.472,0" fill="lightgray" stroke-width="2" opacity="0.9"/><path aria-label="Codon Site: 18; dN/dS estimate: 0" role="graphics-symbol" aria-roledescription="circle" transform="translate(160,600)" d="M4.472,0A4.472,4.472,0,1,1,-4.472,0A4.472,4.472,0,1,1,4.472,0" fill="lightgray" stroke-width="2" opacity="0.9"/><path aria-label="Codon Site: 19; dN/dS estimate: 0" role="graphics-symbol" aria-roledescription="circle" transform="translate(168.88888888888889,600)" d="M4.472,0A4.472,4.472,0,1,1,-4.472,0A4.472,4.472,0,1,1,4.472,0" fill="lightgray" stroke-width="2" opacity="0.9"/><path aria-label="Codon Site: 20; dN/dS estimate: 0" role="graphics-symbol" aria-roledescription="circle" transform="translate(177.77777777777777,600)" d="M4.472,0A4.472,4.472,0,1,1,-4.472,0A4.472,4.472,0,1,1,4.472,0" fill="lightgray" stroke-width="2" opacity="0.9"/><path aria-label="Codon Site: 21; dN/dS estimate: 0" role="graphics-symbol" aria-roledescription="circle" transform="translate(186.66666666666666,600)" d="M4.472,0A4.472,4.472,0,1,1,-4.472,0A4.472,4.472,0,1,1,4.472,0" fill="lightgray" stroke-width="2" opacity="0.9"/><path aria-label="Codon Site: 22; dN/dS estimate: 0" role="graphics-symbol" aria-roledescription="circle" transform="translate(195.55555555555554,600)" d="M4.472,0A4.472,4.472,0,1,1,-4.472,0A4.472,4.472,0,1,1,4.472,0" fill="lightgray" stroke-width="2" opacity="0.9"/><path aria-label="Codon Site: 23; dN/dS estimate: 0" role="graphics-symbol" aria-roledescription="circle" transform="translate(204.44444444444443,600)" d="M4.472,0A4.472,4.472,0,1,1,-4.472,0A4.472,4.472,0,1,1,4.472,0" fill="lightgray" stroke-width="2" opacity="0.9"/><path aria-label="Codon Site: 24; dN/dS estimate: 0" role="graphics-symbol" aria-roledescription="circle" transform="translate(213.33333333333334,600)" d="M4.472,0A4.472,4.472,0,1,1,-4.472,0A4.472,4.472,0,1,1,4.472,0" fill="lightgray" stroke-width="2" opacity="0.9"/><path aria-label="Codon Site: 25; dN/dS estimate: 0" role="graphics-symbol" aria-roledescription="circle" transform="translate(222.22222222222223,600)" d="M4.472,0A4.472,4.472,0,1,1,-4.472,0A4.472,4.472,0,1,1,4.472,0" fill="lightgray" stroke-width="2" opacity="0.9"/><path aria-label="Codon Site: 26; dN/dS estimate: 0" role="graphics-symbol" aria-roledescription="circle" transform="translate(231.1111111111111,600)" d="M4.472,0A4.472,4.472,0,1,1,-4.472,0A4.472,4.472,0,1,1,4.472,0" fill="lightgray" stroke-width="2" opacity="0.9"/><path aria-label="Codon Site: 27; dN/dS estimate: 0" role="graphics-symbol" aria-roledescription="circle" transform="translate(240,600)" d="M4.472,0A4.472,4.472,0,1,1,-4.472,0A4.472,4.472,0,1,1,4.472,0" fill="lightgray" stroke-width="2" opacity="0.9"/><path aria-label="Codon Site: 28; dN/dS estimate: 0" role="graphics-symbol" aria-roledescription="circle" transform="translate(248.88888888888889,600)" d="M4.472,0A4.472,4.472,0,1,1,-4.472,0A4.472,4.472,0,1,1,4.472,0" fill="lightgray" stroke-width="2" opacity="0.9"/><path aria-label="Codon Site: 29; dN/dS estimate: 0" role="graphics-symbol" aria-roledescription="circle" transform="translate(257.77777777777777,600)" d="M4.472,0A4.472,4.472,0,1,1,-4.472,0A4.472,4.472,0,1,1,4.472,0" fill="lightgray" stroke-width="2" opacity="0.9"/><path aria-label="Codon Site: 30; dN/dS estimate: 0" role="graphics-symbol" aria-roledescription="circle" transform="translate(266.66666666666663,600)" d="M4.472,0A4.472,4.472,0,1,1,-4.472,0A4.472,4.472,0,1,1,4.472,0" fill="lightgray" stroke-width="2" opacity="0.9"/><path aria-label="Codon Site: 31; dN/dS estimate: 0" role="graphics-symbol" aria-roledescription="circle" transform="translate(275.55555555555554,600)" d="M4.472,0A4.472,4.472,0,1,1,-4.472,0A4.472,4.472,0,1,1,4.472,0" fill="lightgray" stroke-width="2" opacity="0.9"/><path aria-label="Codon Site: 32; dN/dS estimate: 0" role="graphics-symbol" aria-roledescription="circle" transform="translate(284.44444444444446,600)" d="M4.472,0A4.472,4.472,0,1,1,-4.472,0A4.472,4.472,0,1,1,4.472,0" fill="lightgray" stroke-width="2" opacity="0.9"/><path aria-label="Codon Site: 33; dN/dS estimate: 0" role="graphics-symbol" aria-roledescription="circle" transform="translate(293.3333333333333,600)" d="M4.472,0A4.472,4.472,0,1,1,-4.472,0A4.472,4.472,0,1,1,4.472,0" fill="lightgray" stroke-width="2" opacity="0.9"/><path aria-label="Codon Site: 34; dN/dS estimate: 0" role="graphics-symbol" aria-roledescription="circle" transform="translate(302.22222222222223,600)" d="M4.472,0A4.472,4.472,0,1,1,-4.472,0A4.472,4.472,0,1,1,4.472,0" fill="lightgray" stroke-width="2" opacity="0.9"/><path aria-label="Codon Site: 35; dN/dS estimate: 0" role="graphics-symbol" aria-roledescription="circle" transform="translate(311.11111111111114,600)" d="M4.472,0A4.472,4.472,0,1,1,-4.472,0A4.472,4.472,0,1,1,4.472,0" fill="lightgray" stroke-width="2" opacity="0.9"/><path aria-label="Codon Site: 36; dN/dS estimate: 0" role="graphics-symbol" aria-roledescription="circle" transform="translate(320,600)" d="M4.472,0A4.472,4.472,0,1,1,-4.472,0A4.472,4.472,0,1,1,4.472,0" fill="lightgray" stroke-width="2" opacity="0.9"/><path aria-label="Codon Site: 37; dN/dS estimate: 0" role="graphics-symbol" aria-roledescription="circle" transform="translate(328.88888888888886,600)" d="M4.472,0A4.472,4.472,0,1,1,-4.472,0A4.472,4.472,0,1,1,4.472,0" fill="lightgray" stroke-width="2" opacity="0.9"/><path aria-label="Codon Site: 38; dN/dS estimate: 0" role="graphics-symbol" aria-roledescription="circle" transform="translate(337.77777777777777,600)" d="M4.472,0A4.472,4.472,0,1,1,-4.472,0A4.472,4.472,0,1,1,4.472,0" fill="lightgray" stroke-width="2" opacity="0.9"/><path aria-label="Codon Site: 39; dN/dS estimate: 0" role="graphics-symbol" aria-roledescription="circle" transform="translate(346.6666666666667,600)" d="M4.472,0A4.472,4.472,0,1,1,-4.472,0A4.472,4.472,0,1,1,4.472,0" fill="lightgray" stroke-width="2" opacity="0.9"/><path aria-label="Codon Site: 40; dN/dS estimate: 0" role="graphics-symbol" aria-roledescription="circle" transform="translate(355.55555555555554,600)" d="M4.472,0A4.472,4.472,0,1,1,-4.472,0A4.472,4.472,0,1,1,4.472,0" fill="lightgray" stroke-width="2" opacity="0.9"/><path aria-label="Codon Site: 41; dN/dS estimate: 0" role="graphics-symbol" aria-roledescription="circle" transform="translate(364.44444444444446,600)" d="M4.472,0A4.472,4.472,0,1,1,-4.472,0A4.472,4.472,0,1,1,4.472,0" fill="lightgray" stroke-width="2" opacity="0.9"/><path aria-label="Codon Site: 42; dN/dS estimate: 0" role="graphics-symbol" aria-roledescription="circle" transform="translate(373.3333333333333,600)" d="M4.472,0A4.472,4.472,0,1,1,-4.472,0A4.472,4.472,0,1,1,4.472,0" fill="lightgray" stroke-width="2" opacity="0.9"/><path aria-label="Codon Site: 43; dN/dS estimate: 0" role="graphics-symbol" aria-roledescription="circle" transform="translate(382.22222222222223,600)" d="M4.472,0A4.472,4.472,0,1,1,-4.472,0A4.472,4.472,0,1,1,4.472,0" fill="lightgray" stroke-width="2" opacity="0.9"/><path aria-label="Codon Site: 44; dN/dS estimate: 0" role="graphics-symbol" aria-roledescription="circle" transform="translate(391.1111111111111,600)" d="M4.472,0A4.472,4.472,0,1,1,-4.472,0A4.472,4.472,0,1,1,4.472,0" fill="lightgray" stroke-width="2" opacity="0.9"/><path aria-label="Codon Site: 45; dN/dS estimate: 0" role="graphics-symbol" aria-roledescription="circle" transform="translate(400,600)" d="M4.472,0A4.472,4.472,0,1,1,-4.472,0A4.472,4.472,0,1,1,4.472,0" fill="lightgray" stroke-width="2" opacity="0.9"/><path aria-label="Codon Site: 46; dN/dS estimate: 0" role="graphics-symbol" aria-roledescription="circle" transform="translate(408.88888888888886,600)" d="M4.472,0A4.472,4.472,0,1,1,-4.472,0A4.472,4.472,0,1,1,4.472,0" fill="lightgray" stroke-width="2" opacity="0.9"/><path aria-label="Codon Site: 47; dN/dS estimate: 0" role="graphics-symbol" aria-roledescription="circle" transform="translate(417.7777777777778,600)" d="M4.472,0A4.472,4.472,0,1,1,-4.472,0A4.472,4.472,0,1,1,4.472,0" fill="lightgray" stroke-width="2" opacity="0.9"/><path aria-label="Codon Site: 48; dN/dS estimate: 0" role="graphics-symbol" aria-roledescription="circle" transform="translate(426.6666666666667,600)" d="M4.472,0A4.472,4.472,0,1,1,-4.472,0A4.472,4.472,0,1,1,4.472,0" fill="lightgray" stroke-width="2" opacity="0.9"/><path aria-label="Codon Site: 49; dN/dS estimate: 0" role="graphics-symbol" aria-roledescription="circle" transform="translate(435.55555555555554,600)" d="M4.472,0A4.472,4.472,0,1,1,-4.472,0A4.472,4.472,0,1,1,4.472,0" fill="lightgray" stroke-width="2" opacity="0.9"/><path aria-label="Codon Site: 50; dN/dS estimate: 0" role="graphics-symbol" aria-roledescription="circle" transform="translate(444.44444444444446,600)" d="M4.472,0A4.472,4.472,0,1,1,-4.472,0A4.472,4.472,0,1,1,4.472,0" fill="lightgray" stroke-width="2" opacity="0.9"/><path aria-label="Codon Site: 51; dN/dS estimate: 0" role="graphics-symbol" aria-roledescription="circle" transform="translate(453.3333333333333,600)" d="M4.472,0A4.472,4.472,0,1,1,-4.472,0A4.472,4.472,0,1,1,4.472,0" fill="lightgray" stroke-width="2" opacity="0.9"/><path aria-label="Codon Site: 52; dN/dS estimate: 0" role="graphics-symbol" aria-roledescription="circle" transform="translate(462.2222222222222,600)" d="M4.472,0A4.472,4.472,0,1,1,-4.472,0A4.472,4.472,0,1,1,4.472,0" fill="lightgray" stroke-width="2" opacity="0.9"/><path aria-label="Codon Site: 53; dN/dS estimate: 0" role="graphics-symbol" aria-roledescription="circle" transform="translate(471.11111111111114,600)" d="M4.472,0A4.472,4.472,0,1,1,-4.472,0A4.472,4.472,0,1,1,4.472,0" fill="lightgray" stroke-width="2" opacity="0.9"/><path aria-label="Codon Site: 54; dN/dS estimate: 0" role="graphics-symbol" aria-roledescription="circle" transform="translate(480,600)" d="M4.472,0A4.472,4.472,0,1,1,-4.472,0A4.472,4.472,0,1,1,4.472,0" fill="lightgray" stroke-width="2" opacity="0.9"/><path aria-label="Codon Site: 55; dN/dS estimate: 0" role="graphics-symbol" aria-roledescription="circle" transform="translate(488.8888888888889,600)" d="M4.472,0A4.472,4.472,0,1,1,-4.472,0A4.472,4.472,0,1,1,4.472,0" fill="lightgray" stroke-width="2" opacity="0.9"/><path aria-label="Codon Site: 56; dN/dS estimate: 0" role="graphics-symbol" aria-roledescription="circle" transform="translate(497.77777777777777,600)" d="M4.472,0A4.472,4.472,0,1,1,-4.472,0A4.472,4.472,0,1,1,4.472,0" fill="lightgray" stroke-width="2" opacity="0.9"/><path aria-label="Codon Site: 57; dN/dS estimate: 0" role="graphics-symbol" aria-roledescription="circle" transform="translate(506.66666666666663,600)" d="M4.472,0A4.472,4.472,0,1,1,-4.472,0A4.472,4.472,0,1,1,4.472,0" fill="lightgray" stroke-width="2" opacity="0.9"/><path aria-label="Codon Site: 58; dN/dS estimate: 0" role="graphics-symbol" aria-roledescription="circle" transform="translate(515.5555555555555,600)" d="M4.472,0A4.472,4.472,0,1,1,-4.472,0A4.472,4.472,0,1,1,4.472,0" fill="lightgray" stroke-width="2" opacity="0.9"/><path aria-label="Codon Site: 59; dN/dS estimate: 0" role="graphics-symbol" aria-roledescription="circle" transform="translate(524.4444444444445,600)" d="M4.472,0A4.472,4.472,0,1,1,-4.472,0A4.472,4.472,0,1,1,4.472,0" fill="lightgray" stroke-width="2" opacity="0.9"/><path aria-label="Codon Site: 60; dN/dS estimate: 0" role="graphics-symbol" aria-roledescription="circle" transform="translate(533.3333333333333,600)" d="M4.472,0A4.472,4.472,0,1,1,-4.472,0A4.472,4.472,0,1,1,4.472,0" fill="lightgray" stroke-width="2" opacity="0.9"/><path aria-label="Codon Site: 61; dN/dS estimate: 0" role="graphics-symbol" aria-roledescription="circle" transform="translate(542.2222222222223,600)" d="M4.472,0A4.472,4.472,0,1,1,-4.472,0A4.472,4.472,0,1,1,4.472,0" fill="lightgray" stroke-width="2" opacity="0.9"/><path aria-label="Codon Site: 62; dN/dS estimate: 0" role="graphics-symbol" aria-roledescription="circle" transform="translate(551.1111111111111,600)" d="M4.472,0A4.472,4.472,0,1,1,-4.472,0A4.472,4.472,0,1,1,4.472,0" fill="lightgray" stroke-width="2" opacity="0.9"/><path aria-label="Codon Site: 63; dN/dS estimate: 0" role="graphics-symbol" aria-roledescription="circle" transform="translate(560,600)" d="M4.472,0A4.472,4.472,0,1,1,-4.472,0A4.472,4.472,0,1,1,4.472,0" fill="lightgray" stroke-width="2" opacity="0.9"/><path aria-label="Codon Site: 64; dN/dS estimate: 0" role="graphics-symbol" aria-roledescription="circle" transform="translate(568.8888888888889,600)" d="M4.472,0A4.472,4.472,0,1,1,-4.472,0A4.472,4.472,0,1,1,4.472,0" fill="lightgray" stroke-width="2" opacity="0.9"/><path aria-label="Codon Site: 65; dN/dS estimate: 0" role="graphics-symbol" aria-roledescription="circle" transform="translate(577.7777777777777,600)" d="M4.472,0A4.472,4.472,0,1,1,-4.472,0A4.472,4.472,0,1,1,4.472,0" fill="lightgray" stroke-width="2" opacity="0.9"/><path aria-label="Codon Site: 66; dN/dS estimate: 0" role="graphics-symbol" aria-roledescription="circle" transform="translate(586.6666666666666,600)" d="M4.472,0A4.472,4.472,0,1,1,-4.472,0A4.472,4.472,0,1,1,4.472,0" fill="lightgray" stroke-width="2" opacity="0.9"/><path aria-label="Codon Site: 67; dN/dS estimate: 0" role="graphics-symbol" aria-roledescription="circle" transform="translate(595.5555555555555,600)" d="M4.472,0A4.472,4.472,0,1,1,-4.472,0A4.472,4.472,0,1,1,4.472,0" fill="lightgray" stroke-width="2" opacity="0.9"/><path aria-label="Codon Site: 68; dN/dS estimate: 0" role="graphics-symbol" aria-roledescription="circle" transform="translate(604.4444444444445,600)" d="M4.472,0A4.472,4.472,0,1,1,-4.472,0A4.472,4.472,0,1,1,4.472,0" fill="lightgray" stroke-width="2" opacity="0.9"/><path aria-label="Codon Site: 69; dN/dS estimate: 0" role="graphics-symbol" aria-roledescription="circle" transform="translate(613.3333333333334,600)" d="M4.472,0A4.472,4.472,0,1,1,-4.472,0A4.472,4.472,0,1,1,4.472,0" fill="lightgray" stroke-width="2" opacity="0.9"/><path aria-label="Codon Site: 70; dN/dS estimate: 0" role="graphics-symbol" aria-roledescription="circle" transform="translate(622.2222222222223,600)" d="M4.472,0A4.472,4.472,0,1,1,-4.472,0A4.472,4.472,0,1,1,4.472,0" fill="lightgray" stroke-width="2" opacity="0.9"/><path aria-label="Codon Site: 71; dN/dS estimate: 0" role="graphics-symbol" aria-roledescription="circle" transform="translate(631.1111111111111,600)" d="M4.472,0A4.472,4.472,0,1,1,-4.472,0A4.472,4.472,0,1,1,4.472,0" fill="lightgray" stroke-width="2" opacity="0.9"/><path aria-label="Codon Site: 72; dN/dS estimate: 0" role="graphics-symbol" aria-roledescription="circle" transform="translate(640,600)" d="M4.472,0A4.472,4.472,0,1,1,-4.472,0A4.472,4.472,0,1,1,4.472,0" fill="lightgray" stroke-width="2" opacity="0.9"/><path aria-label="Codon Site: 73; dN/dS estimate: 0" role="graphics-symbol" aria-roledescription="circle" transform="translate(648.8888888888889,600)" d="M4.472,0A4.472,4.472,0,1,1,-4.472,0A4.472,4.472,0,1,1,4.472,0" fill="lightgray" stroke-width="2" opacity="0.9"/><path aria-label="Codon Site: 74; dN/dS estimate: 0" role="graphics-symbol" aria-roledescription="circle" transform="translate(657.7777777777777,600)" d="M4.472,0A4.472,4.472,0,1,1,-4.472,0A4.472,4.472,0,1,1,4.472,0" fill="lightgray" stroke-width="2" opacity="0.9"/><path aria-label="Codon Site: 75; dN/dS estimate: 0" role="graphics-symbol" aria-roledescription="circle" transform="translate(666.6666666666667,600)" d="M4.472,0A4.472,4.472,0,1,1,-4.472,0A4.472,4.472,0,1,1,4.472,0" fill="lightgray" stroke-width="2" opacity="0.9"/><path aria-label="Codon Site: 76; dN/dS estimate: 0" role="graphics-symbol" aria-roledescription="circle" transform="translate(675.5555555555555,600)" d="M4.472,0A4.472,4.472,0,1,1,-4.472,0A4.472,4.472,0,1,1,4.472,0" fill="lightgray" stroke-width="2" opacity="0.9"/><path aria-label="Codon Site: 77; dN/dS estimate: 0" role="graphics-symbol" aria-roledescription="circle" transform="translate(684.4444444444445,600)" d="M4.472,0A4.472,4.472,0,1,1,-4.472,0A4.472,4.472,0,1,1,4.472,0" fill="lightgray" stroke-width="2" opacity="0.9"/><path aria-label="Codon Site: 78; dN/dS estimate: 0" role="graphics-symbol" aria-roledescription="circle" transform="translate(693.3333333333334,600)" d="M4.472,0A4.472,4.472,0,1,1,-4.472,0A4.472,4.472,0,1,1,4.472,0" fill="lightgray" stroke-width="2" opacity="0.9"/><path aria-label="Codon Site: 79; dN/dS estimate: 10000" role="graphics-symbol" aria-roledescription="circle" transform="translate(702.2222222222222,0)" d="M4.472,0A4.472,4.472,0,1,1,-4.472,0A4.472,4.472,0,1,1,4.472,0" fill="lightgray" stroke-width="2" opacity="0.9"/><path aria-label="Codon Site: 80; dN/dS estimate: 205.447328255" role="graphics-symbol" aria-roledescription="circle" transform="translate(711.1111111111111,0)" d="M4.472,0A4.472,4.472,0,1,1,-4.472,0A4.472,4.472,0,1,1,4.472,0" fill="lightgray" stroke-width="2" opacity="0.9"/><path aria-label="Codon Site: 81; dN/dS estimate: 899.122760409" role="graphics-symbol" aria-roledescription="circle" transform="translate(720,0)" d="M4.472,0A4.472,4.472,0,1,1,-4.472,0A4.472,4.472,0,1,1,4.472,0" fill="lightgray" stroke-width="2" opacity="0.9"/><path aria-label="Codon Site: 82; dN/dS estimate: 10000" role="graphics-symbol" aria-roledescription="circle" transform="translate(728.8888888888889,0)" d="M4.472,0A4.472,4.472,0,1,1,-4.472,0A4.472,4.472,0,1,1,4.472,0" fill="lightgray" stroke-width="2" opacity="0.9"/><path aria-label="Codon Site: 83; dN/dS estimate: 12.6263689032" role="graphics-symbol" aria-roledescription="circle" transform="translate(737.7777777777778,0)" d="M4.472,0A4.472,4.472,0,1,1,-4.472,0A4.472,4.472,0,1,1,4.472,0" fill="lightgray" stroke-width="2" opacity="0.9"/><path aria-label="Codon Site: 84; dN/dS estimate: 0.399038908414" role="graphics-symbol" aria-roledescription="circle" transform="translate(746.6666666666666,430.4983734420823)" d="M4.472,0A4.472,4.472,0,1,1,-4.472,0A4.472,4.472,0,1,1,4.472,0" fill="lightgray" stroke-width="2" opacity="0.9"/><path aria-label="Codon Site: 85; dN/dS estimate: 0.392323602659" role="graphics-symbol" aria-roledescription="circle" transform="translate(755.5555555555555,431.9306708782782)" d="M4.472,0A4.472,4.472,0,1,1,-4.472,0A4.472,4.472,0,1,1,4.472,0" fill="lightgray" stroke-width="2" opacity="0.9"/><path aria-label="Codon Site: 86; dN/dS estimate: 10000" role="graphics-symbol" aria-roledescription="circle" transform="translate(764.4444444444445,0)" d="M4.472,0A4.472,4.472,0,1,1,-4.472,0A4.472,4.472,0,1,1,4.472,0" fill="lightgray" stroke-width="2" opacity="0.9"/><path aria-label="Codon Site: 87; dN/dS estimate: 10000" role="graphics-symbol" aria-roledescription="circle" transform="translate(773.3333333333334,0)" d="M4.472,0A4.472,4.472,0,1,1,-4.472,0A4.472,4.472,0,1,1,4.472,0" fill="lightgray" stroke-width="2" opacity="0.9"/></g><g class="mark-area role-mark layer_1_marks" role="graphics-object" aria-roledescription="area mark container"><path aria-label="CodonSite: 1; dN/dS LB: 0; dN/dS UB: 0" role="graphics-symbol" aria-roledescription="area mark" d="M8.889,600L17.778,600L26.667,600L35.556,600L44.444,600L53.333,600L62.222,600L71.111,600L80,600L88.889,600L97.778,600L106.667,600L115.556,600L124.444,600L133.333,600L142.222,600L151.111,600L160,600L168.889,600L177.778,600L186.667,600L195.556,600L204.444,600L213.333,600L222.222,600L231.111,600L240,600L248.889,600L257.778,600L266.667,600L275.556,600L284.444,600L293.333,600L302.222,600L311.111,600L320,600L328.889,600L337.778,600L346.667,600L355.556,600L364.444,600L373.333,600L382.222,600L391.111,600L400,600L408.889,600L417.778,600L426.667,600L435.556,600L444.444,600L453.333,600L462.222,600L471.111,600L480,600L488.889,600L497.778,600L506.667,600L515.556,600L524.444,600L533.333,600L542.222,600L551.111,600L560,600L568.889,600L577.778,600L586.667,600L595.556,600L604.444,600L613.333,600L622.222,600L631.111,600L640,600L648.889,600L657.778,600L666.667,600L675.556,600L684.444,600L693.333,600L702.222,0L711.111,0L720,0L728.889,0L737.778,558.488L746.667,565.368L755.556,565.793L764.444,0L773.333,0L773.333,0L764.444,0L755.556,0L746.667,0L737.778,0L728.889,0L720,0L711.111,0L702.222,0L693.333,600L684.444,600L675.556,600L666.667,600L657.778,600L648.889,600L640,600L631.111,600L622.222,600L613.333,600L604.444,600L595.556,600L586.667,600L577.778,600L568.889,600L560,600L551.111,600L542.222,600L533.333,600L524.444,600L515.556,600L506.667,600L497.778,600L488.889,600L480,600L471.111,600L462.222,600L453.333,600L444.444,600L435.556,600L426.667,600L417.778,600L408.889,600L400,600L391.111,600L382.222,600L373.333,600L364.444,600L355.556,600L346.667,600L337.778,600L328.889,600L320,600L311.111,600L302.222,600L293.333,600L284.444,600L275.556,600L266.667,600L257.778,600L248.889,600L240,600L231.111,600L222.222,600L213.333,600L204.444,600L195.556,600L186.667,600L177.778,600L168.889,600L160,600L151.111,600L142.222,600L133.333,600L124.444,600L115.556,600L106.667,600L97.778,600L88.889,600L80,600L71.111,600L62.222,600L53.333,600L44.444,600L35.556,600L26.667,600L17.778,600L8.889,600Z" fill="#4c78a8" opacity="0.5"/></g></g><path class="foreground" aria-hidden="true" d="" display="none"/></g></g></g><defs><clipPath id="clip1"><rect x="0" y="0" width="800" height="600"/></clipPath></defs></svg>