<svg xmlns="http://www.w3.org/2000/svg" xmlns:xlink="http://www.w3.org/1999/xlink" version="1.1" class="marks" width="960" height="647" viewBox="0 0 960 647"><rect width="960" height="647" fill="white"/><g fill="none" stroke-miterlimit="10" transform="translate(47,10)"><g class="mark-group role-frame root" role="graphics-object" aria-roledescription="group mark container"><g transform="translate(0,0)"><path class="background" aria-hidden="true" d="M0.5,0.5h800v600h-800Z" stroke="#ddd"/><g><g class="mark-group role-axis" aria-hidden="true"><g transform="translate(0.5,600.5)"><path class="background" aria-hidden="true" d="M0,0h0v0h0Z" pointer-events="none"/><g><g class="mark-rule role-axis-grid" pointer-events="none"><line transform="translate(0,-600)" x2="0" y2="600" stroke="#ddd" stroke-width="1" opacity="1"/><line transform="translate(62,-600)" x2="0" y2="600" stroke="#ddd" stroke-width="1" opacity="1"/><line transform="translate(123,-600)" x2="0" y2="600" stroke="#ddd" stroke-width="1" opacity="1"/><line transform="translate(185,-600)" x2="0" y2="600" stroke="#ddd" stroke-width="1" opacity="1"/><line transform="translate(246,-600)" x2="0" y2="600" stroke="#ddd" stroke-width="1" opacity="1"/><line transform="translate(308,-600)" x2="0" y2="600" stroke="#ddd" stroke-width="1" opacity="1"/><line transform="translate(369,-600)" x2="0" y2="600" stroke="#ddd" stroke-width="1" opacity="1"/><line transform="translate(431,-600)" x2="0" y2="600" stroke="#ddd" stroke-width="1" opacity="1"/><line transform="translate(492,-600)" x2="0" y2="600" stroke="#ddd" stroke-width="1" opacity="1"/><line transform="translate(554,-600)" x2="0" y2="600" stroke="#ddd" stroke-width="1" opacity="1"/><line transform="translate(615,-600)" x2="0" y2="600" stroke="#ddd" stroke-width="1" opacity="1"/><line transform="translate(677,-600)" x2="0" y2="600" stroke="#ddd" stroke-width="1" opacity="1"/><line transform="translate(738,-600)" x2="0" y2="600" stroke="#ddd" stroke-width="1" opacity="1"/><line transform="translate(800,-600)" x2="0" y2="600" stroke="#ddd" stroke-width="1" opacity="1"/></g></g><path class="foreground" aria-hidden="true" d="" pointer-events="none" display="none"/></g></g><g class="mark-group role-axis" aria-hidden="true"><g transform="translate(0.5,0.5)"><path class="background" aria-hidden="true" d="M0,0h0v0h0Z" pointer-events="none"/><g><g class="mark-rule role-axis-grid" pointer-events="none"><line transform="translate(0,600)" x2="800" y2="0" stroke="#ddd" stroke-width="1" opacity="1"/><line transform="translate(0,570)" x2="800" y2="0" stroke="#ddd" stroke-width="1" opacity="1"/><line transform="translate(0,540)" x2="800" y2="0" stroke="#ddd" stroke-width="1" opacity="1"/><line transform="translate(0,510)" x2="800" y2="0" stroke="#ddd" stroke-width="1" opacity="1"/><line transform="translate(0,480)" x2="800" y2="0" stroke="#ddd" stroke-width="1" opacity="1"/><line transform="translate(0,450)" x2="800" y2="0" stroke="#ddd" stroke-width="1" opacity="1"/><line transform="translate(0,420)" x2="800" y2="0" stroke="#ddd" stroke-width="1" opacity="1"/><line transform="translate(0,390)" x2="800" y2="0" stroke="#ddd" stroke-width="1" opacity="1"/><line transform="translate(0,360)" x2="800" y2="0" stroke="#ddd" stroke-width="1" opacity="1"/><line transform="translate(0,330)" x2="800" y2="0" stroke="#ddd" stroke-width="1" opacity="1"/><line transform="translate(0,300)" x2="800" y2="0" stroke="#ddd" stroke-width="1" opacity="1"/><line transform="translate(0,270)" x2="800" y2="0" stroke="#ddd" stroke-width="1" opacity="1"/><line transform="translate(0,240)" x2="800" y2="0" stroke="#ddd" stroke-width="1" opacity="1"/><line transform="translate(0,210)" x2="800" y2="0" stroke="#ddd" stroke-width="1" opacity="1"/><line transform="translate(0,180)" x2="800" y2="0" stroke="#ddd" stroke-width="1" opacity="1"/><line transform="translate(0,150)" x2="800" y2="0" stroke="#ddd" stroke-width="1" opacity="1"/><line transform="translate(0,120)" x2="800" y2="0" stroke="#ddd" stroke-width="1" opacity="1"/><line transform="translate(0,90)" x2="800" y2="0" stroke="#ddd" stroke-width="1" opacity="1"/><line transform="translate(0,60)" x2="800" y2="0" stroke="#ddd" stroke-width="1" opacity="1"/><line transform="translate(0,30)" x2="800" y2="0" stroke="#ddd" stroke-width="1" opacity="1"/><line transform="translate(0,0)" x2="800" y2="0" stroke="#ddd" stroke-width="1" opacity="1"/></g></g><path class="foreground" aria-hidden="true" d="" pointer-events="none" display="none"/></g></g><g class="mark-group role-axis" role="graphics-symbol" aria-roledescription="axis" aria-label="X-axis titled 'CodonSite' for a linear scale with values from 0 to 65"><g transform="translate(0.5,600.5)"><path class="background" aria-hidden="true" d="M0,0h0v0h0Z" pointer-events="none"/><g><g class="mark-rule role-axis-tick" pointer-events="none"><line transform="translate(0,0)" x2="0" y2="5" stroke="#888" stroke-width="1" opacity="1"/><line transform="translate(62,0)" x2="0" y2="5" stroke="#888" stroke-width="1" opacity="1"/><line transform="translate(123,0)" x2="0" y2="5" stroke="#888" stroke-width="1" opacity="1"/><line transform="translate(185,0)" x2="0" y2="5" stroke="#888" stroke-width="1" opacity="1"/><line transform="translate(246,0)" x2="0" y2="5" stroke="#888" stroke-width="1" opacity="1"/><line transform="translate(308,0)" x2="0" y2="5" stroke="#888" stroke-width="1" opacity="1"/><line transform="translate(369,0)" x2="0" y2="5" stroke="#888" stroke-width="1" opacity="1"/><line transform="translate(431,0)" x2="0" y2="5" stroke="#888" stroke-width="1" opacity="1"/><line transform="translate(492,0)" x2="0" y2="5" stroke="#888" stroke-width="1" opacity="1"/><line transform="translate(554,0)" x2="0" y2="5" stroke="#888" stroke-width="1" opacity="1"/><line transform="translate(615,0)" x2="0" y2="5" stroke="#888" stroke-width="1" opacity="1"/><line transform="translate(677,0)" x2="0" y2="5" stroke="#888" stroke-width="1" opacity="1"/><line transform="translate(738,0)" x2="0" y2="5" stroke="#888" stroke-width="1" opacity="1"/><line transform="translate(800,0)" x2="0" y2="5" stroke="#888" stroke-width="1" opacity="1"/></g><g class="mark-text role-axis-label" pointer-events="none"><text text-anchor="start" transform="translate(0,15)" font-family="sans-serif" font-size="10px" fill="#000" opacity="1">0</text><text text-anchor="middle" transform="translate(61.53846153846154,15)" font-family="sans-serif" font-size="10px" fill="#000" opacity="1">5</text><text text-anchor="middle" transform="translate(123.07692307692308,15)" font-family="sans-serif" font-size="10px" fill="#000" opacity="1">10</text><text text-anchor="middle" transform="translate(184.6153846153846,15)" font-family="sans-serif" font-size="10px" fill="#000" opacity="1">15</text><text text-anchor="middle" transform="translate(246.15384615384616,15)" font-family="sans-serif" font-size="10px" fill="#000" opacity="1">20</text><text text-anchor="middle" transform="translate(307.69230769230774,15)" font-family="sans-serif" font-size="10px" fill="#000" opacity="1">25</text><text text-anchor="middle" transform="translate(369.2307692307692,15)" font-family="sans-serif" font-size="10px" fill="#000" opacity="1">30</text><text text-anchor="middle" transform="translate(430.7692307692308,15)" font-family="sans-serif" font-size="10px" fill="#000" opacity="1">35</text><text text-anchor="middle" transform="translate(492.3076923076923,15)" font-family="sans-serif" font-size="10px" fill="#000" opacity="1">40</text><text text-anchor="middle" transform="translate(553.8461538461538,15)" font-family="sans-serif" font-size="10px" fill="#000" opacity="1">45</text><text text-anchor="middle" transform="translate(615.3846153846155,15)" font-family="sans-serif" font-size="10px" fill="#000" opacity="1">50</text><text text-anchor="middle" transform="translate(676.9230769230769,15)" font-family="sans-serif" font-size="10px" fill="#000" opacity="1">55</text><text text-anchor="middle" transform="translate(738.4615384615385,15)" font-family="sans-serif" font-size="10px" fill="#000" opacity="1">60</text><text text-anchor="end" transform="translate(800,15)" font-family="sans-serif" font-size="10px" fill="#000" opacity="1">65</text></g><g class="mark-rule role-axis-domain" pointer-events="none"><line transform="translate(0,0)" x2="800" y2="0" stroke="#888" stroke-width="1" opacity="1"/></g><g class="mark-text role-axis-title" pointer-events="none"><text text-anchor="middle" transform="translate(400,30)" font-family="sans-serif" font-size="11px" font-weight="bold" fill="#000" opacity="1">CodonSite</text></g></g><path class="foreground" aria-hidden="true" d="" pointer-events="none" display="none"/></g></g><g class="mark-group role-axis" role="graphics-symbol" aria-roledescription="axis" aria-label="Y-axis titled 'adjusted_p-value' for a linear scale with values from 0.0 to 1.0"><g transform="translate(0.5,0.5)"><path class="background" aria-hidden="true" d="M0,0h0v0h0Z" pointer-events="none"/><g><g class="mark-rule role-axis-tick" pointer-events="none"><line transform="translate(0,600)" x2="-5" y2="0" stroke="#888" stroke-width="1" opacity="1"/><line transform="translate(0,570)" x2="-5" y2="0" stroke="#888" stroke-width="1" opacity="1"/><line transform="translate(0,540)" x2="-5" y2="0" stroke="#888" stroke-width="1" opacity="1"/><line transform="translate(0,510)" x2="-5" y2="0" stroke="#888" stroke-width="1" opacity="1"/><line transform="translate(0,480)" x2="-5" y2="0" stroke="#888" stroke-width="1" opacity="1"/><line transform="translate(0,450)" x2="-5" y2="0" stroke="#888" stroke-width="1" opacity="1"/><line transform="translate(0,420)" x2="-5" y2="0" stroke="#888" stroke-width="1" opacity="1"/><line transform="translate(0,390)" x2="-5" y2="0" stroke="#888" stroke-width="1" opacity="1"/><line transform="translate(0,360)" x2="-5" y2="0" stroke="#888" stroke-width="1" opacity="1"/><line transform="translate(0,330)" x2="-5" y2="0" stroke="#888" stroke-width="1" opacity="1"/><line transform="translate(0,300)" x2="-5" y2="0" stroke="#888" stroke-width="1" opacity="1"/><line transform="translate(0,270)" x2="-5" y2="0" stroke="#888" stroke-width="1" opacity="1"/><line transform="translate(0,240)" x2="-5" y2="0" stroke="#888" stroke-width="1" opacity="1"/><line transform="translate(0,210)" x2="-5" y2="0" stroke="#888" stroke-width="1" opacity="1"/><line transform="translate(0,180)" x2="-5" y2="0" stroke="#888" stroke-width="1" opacity="1"/><line transform="translate(0,150)" x2="-5" y2="0" stroke="#888" stroke-width="1" opacity="1"/><line transform="translate(0,120)" x2="-5" y2="0" stroke="#888" stroke-width="1" opacity="1"/><line transform="translate(0,90)" x2="-5" y2="0" stroke="#888" stroke-width="1" opacity="1"/><line transform="translate(0,60)" x2="-5" y2="0" stroke="#888" stroke-width="1" opacity="1"/><line transform="translate(0,30)" x2="-5" y2="0" stroke="#888" stroke-width="1" opacity="1"/><line transform="translate(0,0)" x2="-5" y2="0" stroke="#888" stroke-width="1" opacity="1"/></g><g class="mark-text role-axis-label" pointer-events="none"><text text-anchor="end" transform="translate(-7,603)" font-family="sans-serif" font-size="10px" fill="#000" opacity="1">0.00</text><text text-anchor="end" transform="translate(-7,573)" font-family="sans-serif" font-size="10px" fill="#000" opacity="1">0.05</text><text text-anchor="end" transform="translate(-7,543)" font-family="sans-serif" font-size="10px" fill="#000" opacity="1">0.10</text><text text-anchor="end" transform="translate(-7,513)" font-family="sans-serif" font-size="10px" fill="#000" opacity="1">0.15</text><text text-anchor="end" transform="translate(-7,483)" font-family="sans-serif" font-size="10px" fill="#000" opacity="1">0.20</text><text text-anchor="end" transform="translate(-7,453)" font-family="sans-serif" font-size="10px" fill="#000" opacity="1">0.25</text><text text-anchor="end" transform="translate(-7,423)" font-family="sans-serif" font-size="10px" fill="#000" opacity="1">0.30</text><text text-anchor="end" transform="translate(-7,393)" font-family="sans-serif" font-size="10px" fill="#000" opacity="1">0.35</text><text text-anchor="end" transform="translate(-7,363)" font-family="sans-serif" font-size="10px" fill="#000" opacity="1">0.40</text><text text-anchor="end" transform="translate(-7,333)" font-family="sans-serif" font-size="10px" fill="#000" opacity="1">0.45</text><text text-anchor="end" transform="translate(-7,303)" font-family="sans-serif" font-size="10px" fill="#000" opacity="1">0.50</text><text text-anchor="end" transform="translate(-7,273)" font-family="sans-serif" font-size="10px" fill="#000" opacity="1">0.55</text><text text-anchor="end" transform="translate(-7,243)" font-family="sans-serif" font-size="10px" fill="#000" opacity="1">0.60</text><text text-anchor="end" transform="translate(-7,213)" font-family="sans-serif" font-size="10px" fill="#000" opacity="1">0.65</text><text text-anchor="end" transform="translate(-7,183.00000000000003)" font-family="sans-serif" font-size="10px" fill="#000" opacity="1">0.70</text><text text-anchor="end" transform="translate(-7,153)" font-family="sans-serif" font-size="10px" fill="#000" opacity="1">0.75</text><text text-anchor="end" transform="translate(-7,122.99999999999997)" font-family="sans-serif" font-size="10px" fill="#000" opacity="1">0.80</text><text text-anchor="end" transform="translate(-7,93.00000000000001)" font-family="sans-serif" font-size="10px" fill="#000" opacity="1">0.85</text><text text-anchor="end" transform="translate(-7,62.999999999999986)" font-family="sans-serif" font-size="10px" fill="#000" opacity="1">0.90</text><text text-anchor="end" transform="translate(-7,33.00000000000003)" font-family="sans-serif" font-size="10px" fill="#000" opacity="1">0.95</text><text text-anchor="end" transform="translate(-7,3)" font-family="sans-serif" font-size="10px" fill="#000" opacity="1">1.00</text></g><g class="mark-rule role-axis-domain" pointer-events="none"><line transform="translate(0,600)" x2="0" y2="-600" stroke="#888" stroke-width="1" opacity="1"/></g><g class="mark-text role-axis-title" pointer-events="none"><text text-anchor="middle" transform="translate(-30.462890625,300) rotate(-90) translate(0,-2)" font-family="sans-serif" font-size="11px" font-weight="bold" fill="#000" opacity="1">adjusted_p-value</text></g></g><path class="foreground" aria-hidden="true" d="" pointer-events="none" display="none"/></g></g><g class="mark-symbol role-mark marks" role="graphics-object" aria-roledescription="symbol mark container"><path aria-label="CodonSite: 1; adjusted_p-value: 1" role="graphics-symbol" aria-roledescription="point" transform="translate(12.307692307692308,0)" d="M2.739,0A2.739,2.739,0,1,1,-2.739,0A2.739,2.739,0,1,1,2.739,0" stroke="rgb(246, 87, 63)" stroke-width="2" opacity="0.7"/><path aria-label="CodonSite: 2; adjusted_p-value: 1" role="graphics-symbol" aria-roledescription="point" transform="translate(24.615384615384617,0)" d="M2.739,0A2.739,2.739,0,1,1,-2.739,0A2.739,2.739,0,1,1,2.739,0" stroke="rgb(246, 87, 63)" stroke-width="2" opacity="0.7"/><path aria-label="CodonSite: 3; adjusted_p-value: 1" role="graphics-symbol" aria-roledescription="point" transform="translate(36.92307692307693,0)" d="M2.739,0A2.739,2.739,0,1,1,-2.739,0A2.739,2.739,0,1,1,2.739,0" stroke="rgb(246, 87, 63)" stroke-width="2" opacity="0.7"/><path aria-label="CodonSite: 4; adjusted_p-value: 1" role="graphics-symbol" aria-roledescription="point" transform="translate(49.23076923076923,0)" d="M2.739,0A2.739,2.739,0,1,1,-2.739,0A2.739,2.739,0,1,1,2.739,0" stroke="rgb(246, 87, 63)" stroke-width="2" opacity="0.7"/><path aria-label="CodonSite: 5; adjusted_p-value: 1" role="graphics-symbol" aria-roledescription="point" transform="translate(61.53846153846154,0)" d="M2.739,0A2.739,2.739,0,1,1,-2.739,0A2.739,2.739,0,1,1,2.739,0" stroke="rgb(246, 87, 63)" stroke-width="2" opacity="0.7"/><path aria-label="CodonSite: 6; adjusted_p-value: 1" role="graphics-symbol" aria-roledescription="point" transform="translate(73.84615384615385,0)" d="M2.739,0A2.739,2.739,0,1,1,-2.739,0A2.739,2.739,0,1,1,2.739,0" stroke="rgb(246, 87, 63)" stroke-width="2" opacity="0.7"/><path aria-label="CodonSite: 7; adjusted_p-value: 1" role="graphics-symbol" aria-roledescription="point" transform="translate(86.15384615384616,0)" d="M2.739,0A2.739,2.739,0,1,1,-2.739,0A2.739,2.739,0,1,1,2.739,0" stroke="rgb(246, 87, 63)" stroke-width="2" opacity="0.7"/><path aria-label="CodonSite: 8; adjusted_p-value: 1" role="graphics-symbol" aria-roledescription="point" transform="translate(98.46153846153847,0)" d="M2.739,0A2.739,2.739,0,1,1,-2.739,0A2.739,2.739,0,1,1,2.739,0" stroke="rgb(246, 87, 63)" stroke-width="2" opacity="0.7"/><path aria-label="CodonSite: 9; adjusted_p-value: 1" role="graphics-symbol" aria-roledescription="point" transform="translate(110.76923076923077,0)" d="M2.739,0A2.739,2.739,0,1,1,-2.739,0A2.739,2.739,0,1,1,2.739,0" stroke="rgb(246, 87, 63)" stroke-width="2" opacity="0.7"/><path aria-label="CodonSite: 10; adjusted_p-value: 1" role="graphics-symbol" aria-roledescription="point" transform="translate(123.07692307692308,0)" d="M2.739,0A2.739,2.739,0,1,1,-2.739,0A2.739,2.739,0,1,1,2.739,0" stroke="rgb(246, 87, 63)" stroke-width="2" opacity="0.7"/><path aria-label="CodonSite: 11; adjusted_p-value: 1" role="graphics-symbol" aria-roledescription="point" transform="translate(135.3846153846154,0)" d="M2.739,0A2.739,2.739,0,1,1,-2.739,0A2.739,2.739,0,1,1,2.739,0" stroke="rgb(246, 87, 63)" stroke-width="2" opacity="0.7"/><path aria-label="CodonSite: 12; adjusted_p-value: 1" role="graphics-symbol" aria-roledescription="point" transform="translate(147.6923076923077,0)" d="M2.739,0A2.739,2.739,0,1,1,-2.739,0A2.739,2.739,0,1,1,2.739,0" stroke="rgb(246, 87, 63)" stroke-width="2" opacity="0.7"/><path aria-label="CodonSite: 13; adjusted_p-value: 1" role="graphics-symbol" aria-roledescription="point" transform="translate(160,0)" d="M2.739,0A2.739,2.739,0,1,1,-2.739,0A2.739,2.739,0,1,1,2.739,0" stroke="rgb(246, 87, 63)" stroke-width="2" opacity="0.7"/><path aria-label="CodonSite: 14; adjusted_p-value: 1" role="graphics-symbol" aria-roledescription="point" transform="translate(172.30769230769232,0)" d="M2.739,0A2.739,2.739,0,1,1,-2.739,0A2.739,2.739,0,1,1,2.739,0" stroke="rgb(246, 87, 63)" stroke-width="2" opacity="0.7"/><path aria-label="CodonSite: 15; adjusted_p-value: 1" role="graphics-symbol" aria-roledescription="point" transform="translate(184.6153846153846,0)" d="M2.739,0A2.739,2.739,0,1,1,-2.739,0A2.739,2.739,0,1,1,2.739,0" stroke="rgb(246, 87, 63)" stroke-width="2" opacity="0.7"/><path aria-label="CodonSite: 16; adjusted_p-value: 1" role="graphics-symbol" aria-roledescription="point" transform="translate(196.92307692307693,0)" d="M2.739,0A2.739,2.739,0,1,1,-2.739,0A2.739,2.739,0,1,1,2.739,0" stroke="rgb(246, 87, 63)" stroke-width="2" opacity="0.7"/><path aria-label="CodonSite: 17; adjusted_p-value: 1" role="graphics-symbol" aria-roledescription="point" transform="translate(209.23076923076925,0)" d="M2.739,0A2.739,2.739,0,1,1,-2.739,0A2.739,2.739,0,1,1,2.739,0" stroke="rgb(246, 87, 63)" stroke-width="2" opacity="0.7"/><path aria-label="CodonSite: 18; adjusted_p-value: 1" role="graphics-symbol" aria-roledescription="point" transform="translate(221.53846153846155,0)" d="M2.739,0A2.739,2.739,0,1,1,-2.739,0A2.739,2.739,0,1,1,2.739,0" stroke="rgb(246, 87, 63)" stroke-width="2" opacity="0.7"/><path aria-label="CodonSite: 19; adjusted_p-value: 1" role="graphics-symbol" aria-roledescription="point" transform="translate(233.84615384615387,0)" d="M2.739,0A2.739,2.739,0,1,1,-2.739,0A2.739,2.739,0,1,1,2.739,0" stroke="rgb(246, 87, 63)" stroke-width="2" opacity="0.7"/><path aria-label="CodonSite: 20; adjusted_p-value: 1" role="graphics-symbol" aria-roledescription="point" transform="translate(246.15384615384616,0)" d="M2.739,0A2.739,2.739,0,1,1,-2.739,0A2.739,2.739,0,1,1,2.739,0" stroke="rgb(246, 87, 63)" stroke-width="2" opacity="0.7"/><path aria-label="CodonSite: 21; adjusted_p-value: 1" role="graphics-symbol" aria-roledescription="point" transform="translate(258.46153846153845,0)" d="M2.739,0A2.739,2.739,0,1,1,-2.739,0A2.739,2.739,0,1,1,2.739,0" stroke="rgb(246, 87, 63)" stroke-width="2" opacity="0.7"/><path aria-label="CodonSite: 22; adjusted_p-value: 1" role="graphics-symbol" aria-roledescription="point" transform="translate(270.7692307692308,0)" d="M2.739,0A2.739,2.739,0,1,1,-2.739,0A2.739,2.739,0,1,1,2.739,0" stroke="rgb(246, 87, 63)" stroke-width="2" opacity="0.7"/><path aria-label="CodonSite: 23; adjusted_p-value: 1" role="graphics-symbol" aria-roledescription="point" transform="translate(283.0769230769231,0)" d="M2.739,0A2.739,2.739,0,1,1,-2.739,0A2.739,2.739,0,1,1,2.739,0" stroke="rgb(246, 87, 63)" stroke-width="2" opacity="0.7"/><path aria-label="CodonSite: 24; adjusted_p-value: 1" role="graphics-symbol" aria-roledescription="point" transform="translate(295.3846153846154,0)" d="M2.739,0A2.739,2.739,0,1,1,-2.739,0A2.739,2.739,0,1,1,2.739,0" stroke="rgb(246, 87, 63)" stroke-width="2" opacity="0.7"/><path aria-label="CodonSite: 25; adjusted_p-value: 1" role="graphics-symbol" aria-roledescription="point" transform="translate(307.69230769230774,0)" d="M2.739,0A2.739,2.739,0,1,1,-2.739,0A2.739,2.739,0,1,1,2.739,0" stroke="rgb(246, 87, 63)" stroke-width="2" opacity="0.7"/><path aria-label="CodonSite: 26; adjusted_p-value: 1" role="graphics-symbol" aria-roledescription="point" transform="translate(320,0)" d="M2.739,0A2.739,2.739,0,1,1,-2.739,0A2.739,2.739,0,1,1,2.739,0" stroke="rgb(246, 87, 63)" stroke-width="2" opacity="0.7"/><path aria-label="CodonSite: 27; adjusted_p-value: 1" role="graphics-symbol" aria-roledescription="point" transform="translate(332.3076923076923,0)" d="M2.739,0A2.739,2.739,0,1,1,-2.739,0A2.739,2.739,0,1,1,2.739,0" stroke="rgb(246, 87, 63)" stroke-width="2" opacity="0.7"/><path aria-label="CodonSite: 28; adjusted_p-value: 1" role="graphics-symbol" aria-roledescription="point" transform="translate(344.61538461538464,0)" d="M2.739,0A2.739,2.739,0,1,1,-2.739,0A2.739,2.739,0,1,1,2.739,0" stroke="rgb(246, 87, 63)" stroke-width="2" opacity="0.7"/><path aria-label="CodonSite: 29; adjusted_p-value: 1" role="graphics-symbol" aria-roledescription="point" transform="translate(356.92307692307696,0)" d="M2.739,0A2.739,2.739,0,1,1,-2.739,0A2.739,2.739,0,1,1,2.739,0" stroke="rgb(246, 87, 63)" stroke-width="2" opacity="0.7"/><path aria-label="CodonSite: 30; adjusted_p-value: 1" role="graphics-symbol" aria-roledescription="point" transform="translate(369.2307692307692,0)" d="M2.739,0A2.739,2.739,0,1,1,-2.739,0A2.739,2.739,0,1,1,2.739,0" stroke="rgb(246, 87, 63)" stroke-width="2" opacity="0.7"/><path aria-label="CodonSite: 31; adjusted_p-value: 1" role="graphics-symbol" aria-roledescription="point" transform="translate(381.53846153846155,0)" d="M2.739,0A2.739,2.739,0,1,1,-2.739,0A2.739,2.739,0,1,1,2.739,0" stroke="rgb(246, 87, 63)" stroke-width="2" opacity="0.7"/><path aria-label="CodonSite: 32; adjusted_p-value: 1" role="graphics-symbol" aria-roledescription="point" transform="translate(393.84615384615387,0)" d="M2.739,0A2.739,2.739,0,1,1,-2.739,0A2.739,2.739,0,1,1,2.739,0" stroke="rgb(246, 87, 63)" stroke-width="2" opacity="0.7"/><path aria-label="CodonSite: 33; adjusted_p-value: 1" role="graphics-symbol" aria-roledescription="point" transform="translate(406.15384615384613,0)" d="M2.739,0A2.739,2.739,0,1,1,-2.739,0A2.739,2.739,0,1,1,2.739,0" stroke="rgb(246, 87, 63)" stroke-width="2" opacity="0.7"/><path aria-label="CodonSite: 34; adjusted_p-value: 1" role="graphics-symbol" aria-roledescription="point" transform="translate(418.4615384615385,0)" d="M2.739,0A2.739,2.739,0,1,1,-2.739,0A2.739,2.739,0,1,1,2.739,0" stroke="rgb(246, 87, 63)" stroke-width="2" opacity="0.7"/><path aria-label="CodonSite: 35; adjusted_p-value: 1" role="graphics-symbol" aria-roledescription="point" transform="translate(430.7692307692308,0)" d="M2.739,0A2.739,2.739,0,1,1,-2.739,0A2.739,2.739,0,1,1,2.739,0" stroke="rgb(246, 87, 63)" stroke-width="2" opacity="0.7"/><path aria-label="CodonSite: 36; adjusted_p-value: 1" role="graphics-symbol" aria-roledescription="point" transform="translate(443.0769230769231,0)" d="M2.739,0A2.739,2.739,0,1,1,-2.739,0A2.739,2.739,0,1,1,2.739,0" stroke="rgb(246, 87, 63)" stroke-width="2" opacity="0.7"/><path aria-label="CodonSite: 37; adjusted_p-value: 1" role="graphics-symbol" aria-roledescription="point" transform="translate(455.38461538461536,0)" d="M2.739,0A2.739,2.739,0,1,1,-2.739,0A2.739,2.739,0,1,1,2.739,0" stroke="rgb(246, 87, 63)" stroke-width="2" opacity="0.7"/><path aria-label="CodonSite: 38; adjusted_p-value: 1" role="graphics-symbol" aria-roledescription="point" transform="translate(467.69230769230774,0)" d="M2.739,0A2.739,2.739,0,1,1,-2.739,0A2.739,2.739,0,1,1,2.739,0" stroke="rgb(246, 87, 63)" stroke-width="2" opacity="0.7"/><path aria-label="CodonSite: 39; adjusted_p-value: 1" role="graphics-symbol" aria-roledescription="point" transform="translate(480,0)" d="M2.739,0A2.739,2.739,0,1,1,-2.739,0A2.739,2.739,0,1,1,2.739,0" stroke="rgb(246, 87, 63)" stroke-width="2" opacity="0.7"/><path aria-label="CodonSite: 40; adjusted_p-value: 1" role="graphics-symbol" aria-roledescription="point" transform="translate(492.3076923076923,0)" d="M2.739,0A2.739,2.739,0,1,1,-2.739,0A2.739,2.739,0,1,1,2.739,0" stroke="rgb(246, 87, 63)" stroke-width="2" opacity="0.7"/><path aria-label="CodonSite: 41; adjusted_p-value: 1" role="graphics-symbol" aria-roledescription="point" transform="translate(504.6153846153846,0)" d="M2.739,0A2.739,2.739,0,1,1,-2.739,0A2.739,2.739,0,1,1,2.739,0" stroke="rgb(246, 87, 63)" stroke-width="2" opacity="0.7"/><path aria-label="CodonSite: 42; adjusted_p-value: 1" role="graphics-symbol" aria-roledescription="point" transform="translate(516.9230769230769,0)" d="M2.739,0A2.739,2.739,0,1,1,-2.739,0A2.739,2.739,0,1,1,2.739,0" stroke="rgb(246, 87, 63)" stroke-width="2" opacity="0.7"/><path aria-label="CodonSite: 43; adjusted_p-value: 1" role="graphics-symbol" aria-roledescription="point" transform="translate(529.2307692307692,0)" d="M2.739,0A2.739,2.739,0,1,1,-2.739,0A2.739,2.739,0,1,1,2.739,0" stroke="rgb(246, 87, 63)" stroke-width="2" opacity="0.7"/><path aria-label="CodonSite: 44; adjusted_p-value: 1" role="graphics-symbol" aria-roledescription="point" transform="translate(541.5384615384615,0)" d="M2.739,0A2.739,2.739,0,1,1,-2.739,0A2.739,2.739,0,1,1,2.739,0" stroke="rgb(246, 87, 63)" stroke-width="2" opacity="0.7"/><path aria-label="CodonSite: 45; adjusted_p-value: 1" role="graphics-symbol" aria-roledescription="point" transform="translate(553.8461538461538,0)" d="M2.739,0A2.739,2.739,0,1,1,-2.739,0A2.739,2.739,0,1,1,2.739,0" stroke="rgb(246, 87, 63)" stroke-width="2" opacity="0.7"/><path aria-label="CodonSite: 46; adjusted_p-value: 1" role="graphics-symbol" aria-roledescription="point" transform="translate(566.1538461538462,0)" d="M2.739,0A2.739,2.739,0,1,1,-2.739,0A2.739,2.739,0,1,1,2.739,0" stroke="rgb(246, 87, 63)" stroke-width="2" opacity="0.7"/><path aria-label="CodonSite: 47; adjusted_p-value: 1" role="graphics-symbol" aria-roledescription="point" transform="translate(578.4615384615385,0)" d="M2.739,0A2.739,2.739,0,1,1,-2.739,0A2.739,2.739,0,1,1,2.739,0" stroke="rgb(246, 87, 63)" stroke-width="2" opacity="0.7"/><path aria-label="CodonSite: 48; adjusted_p-value: 1" role="graphics-symbol" aria-roledescription="point" transform="translate(590.7692307692308,0)" d="M2.739,0A2.739,2.739,0,1,1,-2.739,0A2.739,2.739,0,1,1,2.739,0" stroke="rgb(246, 87, 63)" stroke-width="2" opacity="0.7"/><path aria-label="CodonSite: 49; adjusted_p-value: 1" role="graphics-symbol" aria-roledescription="point" transform="translate(603.0769230769231,0)" d="M2.739,0A2.739,2.739,0,1,1,-2.739,0A2.739,2.739,0,1,1,2.739,0" stroke="rgb(246, 87, 63)" stroke-width="2" opacity="0.7"/><path aria-label="CodonSite: 50; adjusted_p-value: 1" role="graphics-symbol" aria-roledescription="point" transform="translate(615.3846153846155,0)" d="M2.739,0A2.739,2.739,0,1,1,-2.739,0A2.739,2.739,0,1,1,2.739,0" stroke="rgb(246, 87, 63)" stroke-width="2" opacity="0.7"/><path aria-label="CodonSite: 51; adjusted_p-value: 1" role="graphics-symbol" aria-roledescription="point" transform="translate(627.6923076923077,0)" d="M2.739,0A2.739,2.739,0,1,1,-2.739,0A2.739,2.739,0,1,1,2.739,0" stroke="rgb(246, 87, 63)" stroke-width="2" opacity="0.7"/><path aria-label="CodonSite: 52; adjusted_p-value: 1" role="graphics-symbol" aria-roledescription="point" transform="translate(640,0)" d="M2.739,0A2.739,2.739,0,1,1,-2.739,0A2.739,2.739,0,1,1,2.739,0" stroke="rgb(246, 87, 63)" stroke-width="2" opacity="0.7"/><path aria-label="CodonSite: 53; adjusted_p-value: 1" role="graphics-symbol" aria-roledescription="point" transform="translate(652.3076923076923,0)" d="M2.739,0A2.739,2.739,0,1,1,-2.739,0A2.739,2.739,0,1,1,2.739,0" stroke="rgb(246, 87, 63)" stroke-width="2" opacity="0.7"/><path aria-label="CodonSite: 54; adjusted_p-value: 1" role="graphics-symbol" aria-roledescription="point" transform="translate(664.6153846153846,0)" d="M2.739,0A2.739,2.739,0,1,1,-2.739,0A2.739,2.739,0,1,1,2.739,0" stroke="rgb(246, 87, 63)" stroke-width="2" opacity="0.7"/><path aria-label="CodonSite: 55; adjusted_p-value: 1" role="graphics-symbol" aria-roledescription="point" transform="translate(676.9230769230769,0)" d="M2.739,0A2.739,2.739,0,1,1,-2.739,0A2.739,2.739,0,1,1,2.739,0" stroke="rgb(246, 87, 63)" stroke-width="2" opacity="0.7"/><path aria-label="CodonSite: 56; adjusted_p-value: 1" role="graphics-symbol" aria-roledescription="point" transform="translate(689.2307692307693,0)" d="M2.739,0A2.739,2.739,0,1,1,-2.739,0A2.739,2.739,0,1,1,2.739,0" stroke="rgb(246, 87, 63)" stroke-width="2" opacity="0.7"/><path aria-label="CodonSite: 57; adjusted_p-value: 1" role="graphics-symbol" aria-roledescription="point" transform="translate(701.5384615384615,0)" d="M2.739,0A2.739,2.739,0,1,1,-2.739,0A2.739,2.739,0,1,1,2.739,0" stroke="rgb(246, 87, 63)" stroke-width="2" opacity="0.7"/><path aria-label="CodonSite: 58; adjusted_p-value: 1" role="graphics-symbol" aria-roledescription="point" transform="translate(713.8461538461539,0)" d="M2.739,0A2.739,2.739,0,1,1,-2.739,0A2.739,2.739,0,1,1,2.739,0" stroke="rgb(246, 87, 63)" stroke-width="2" opacity="0.7"/><path aria-label="CodonSite: 59; adjusted_p-value: 1" role="graphics-symbol" aria-roledescription="point" transform="translate(726.1538461538462,0)" d="M2.739,0A2.739,2.739,0,1,1,-2.739,0A2.739,2.739,0,1,1,2.739,0" stroke="rgb(246, 87, 63)" stroke-width="2" opacity="0.7"/><path aria-label="CodonSite: 60; adjusted_p-value: 1" role="graphics-symbol" aria-roledescription="point" transform="translate(738.4615384615385,0)" d="M2.739,0A2.739,2.739,0,1,1,-2.739,0A2.739,2.739,0,1,1,2.739,0" stroke="rgb(246, 87, 63)" stroke-width="2" opacity="0.7"/><path aria-label="CodonSite: 61; adjusted_p-value: 1" role="graphics-symbol" aria-roledescription="point" transform="translate(750.7692307692307,0)" d="M2.739,0A2.739,2.739,0,1,1,-2.739,0A2.739,2.739,0,1,1,2.739,0" stroke="rgb(246, 87, 63)" stroke-width="2" opacity="0.7"/><path aria-label="CodonSite: 62; adjusted_p-value: 1" role="graphics-symbol" aria-roledescription="point" transform="translate(763.0769230769231,0)" d="M2.739,0A2.739,2.739,0,1,1,-2.739,0A2.739,2.739,0,1,1,2.739,0" stroke="rgb(246, 87, 63)" stroke-width="2" opacity="0.7"/><path aria-label="CodonSite: 63; adjusted_p-value: 1" role="graphics-symbol" aria-roledescription="point" transform="translate(775.3846153846154,0)" d="M2.739,0A2.739,2.739,0,1,1,-2.739,0A2.739,2.739,0,1,1,2.739,0" stroke="rgb(246, 87, 63)" stroke-width="2" opacity="0.7"/><path aria-label="CodonSite: 64; adjusted_p-value: 1" role="graphics-symbol" aria-roledescription="point" transform="translate(787.6923076923077,0)" d="M2.739,0A2.739,2.739,0,1,1,-2.739,0A2.739,2.739,0,1,1,2.739,0" stroke="rgb(246, 87, 63)" stroke-width="2" opacity="0.7"/><path aria-label="CodonSite: 65; adjusted_p-value: 1" role="graphics-symbol" aria-roledescription="point" transform="translate(800,0)" d="M2.739,0A2.739,2.739,0,1,1,-2.739,0A2.739,2.739,0,1,1,2.739,0" stroke="rgb(246, 87, 63)" stroke-width="2" opacity="0.7"/></g><g class="mark-group role-legend" role="graphics-symbol" aria-roledescription="legend" aria-label="Gradient legend titled 'adjusted_p-value' for stroke color with values from 1 to 1"><g transform="translate(818,0)"><path class="background" aria-hidden="true" d="M0,0h90v216h-90Z" pointer-events="none"/><g><g class="mark-group role-legend-entry"><g transform="translate(0,16)"><path class="background" aria-hidden="true" d="M0,0h0v0h0Z" pointer-events="none"/><g><g class="mark-rect role-legend-gradient" pointer-events="none"><path d="M0,0h16v200h-16Z" fill="url(#gradient_0)" stroke="#ddd" stroke-width="0" opacity="0.7"/></g><g class="mark-text role-legend-label" pointer-events="none"><text text-anchor="start" transform="translate(18,103)" font-family="sans-serif" font-size="10px" fill="#000" opacity="1">1</text></g></g><path class="foreground" aria-hidden="true" d="" pointer-events="none" display="none"/></g></g><g class="mark-text role-legend-title" pointer-events="none"><text text-anchor="start" transform="translate(0,9)" font-family="sans-serif" font-size="11px" font-weight="bold" fill="#000" opacity="1">adjusted_p-value</text></g></g><path class="foreground" aria-hidden="true" d="" pointer-events="none" display="none"/></g></g></g><path class="foreground" aria-hidden="true" d="" display="none"/></g></g></g><defs><linearGradient id="gradient_0" x1="0" x2="0" y1="1" y2="0"><stop offset="0" stop-color="rgb(151, 11, 19)"/><stop offset="0.05" stop-color="rgb(165, 15, 22)"/><stop offset="0.1" stop-color="rgb(178, 18, 24)"/><stop offset="0.15" stop-color="rgb(189, 23, 27)"/><stop offset="0.2" stop-color="rgb(200, 27, 29)"/><stop offset="0.25" stop-color="rgb(210, 35, 33)"/><stop offset="0.3" stop-color="rgb(220, 42, 37)"/><stop offset="0.35" stop-color="rgb(228, 53, 42)"/><stop offset="0.4" stop-color="rgb(236, 63, 47)"/><stop offset="0.45" stop-color="rgb(241, 75, 55)"/><stop offset="0.5" stop-color="rgb(246, 87, 63)"/><stop offset="0.55" stop-color="rgb(248, 100, 72)"/><stop offset="0.6" stop-color="rgb(250, 112, 81)"/><stop offset="0.65" stop-color="rgb(251, 124, 92)"/><stop offset="0.7" stop-color="rgb(252, 135, 103)"/><stop offset="0.75" stop-color="rgb(252, 147, 116)"/><stop offset="0.8" stop-color="rgb(252, 158, 128)"/><stop offset="0.85" stop-color="rgb(252, 169, 141)"/><stop offset="0.9" stop-color="rgb(252, 180, 154)"/><stop offset="0.95" stop-color="rgb(253, 191, 167)"/><stop offset="1" stop-color="rgb(253, 201, 180)"/></linearGradient></defs></svg>